<?xml version="1.0" encoding="UTF-8" standalone="no"?><!DOCTYPE svg PUBLIC "-//W3C//DTD SVG 1.1//EN" "http://www.w3.org/Graphics/SVG/1.1/DTD/svg11.dtd"><svg width="100%" height="100%" viewBox="0 0 6797 2316" version="1.1" xmlns="http://www.w3.org/2000/svg" xmlns:xlink="http://www.w3.org/1999/xlink" xml:space="preserve" xmlns:serif="http://www.serif.com/" style="fill-rule:evenodd;clip-rule:evenodd;stroke-miterlimit:10;"><g><rect x="0" y="0" width="6796.82" height="2315.16" style="fill:#9d0a0e;"/><clipPath id="_clip1"><rect x="0" y="0" width="6796.82" height="2315.16"/></clipPath><g clip-path="url(#_clip1)"><g><path d="M616.304,-0c18.75,34.167 37.5,67.5 55,101.25c30,57.917 65.833,112.083 106.667,162.5c42.083,51.667 89.583,98.333 140,142.083c10.416,8.75 21.666,16.25 33.75,25c-21.25,14.584 -46.667,15.834 -70.834,17.5c-49.583,3.75 -98.75,6.25 -151.666,9.584c94.583,194.583 248.75,310.833 457.083,367.083c-17.5,15.833 -32.083,30.833 -48.75,43.333c-47.083,35.834 -101.667,57.084 -158.333,72.5c-42.084,11.667 -84.584,20.834 -130.417,32.084c13.333,20.833 24.167,42.5 39.583,61.25c28.75,35.416 58.75,70.416 90.417,102.916c52.083,53.75 113.75,95.834 180,129.167c72.917,36.667 147.917,69.583 224.167,105c-14.167,12.917 -28.75,29.583 -46.667,42.083c-70.833,50.417 -150.417,80.834 -235,99.167c-36.25,7.917 -72.083,15.417 -114.583,24.167c20.833,19.583 37.5,38.333 57.083,52.5c55,39.166 110,79.166 168.333,112.916c49.167,28.75 102.5,50.417 155.417,72.5c43.333,17.917 87.917,32.084 132.083,47.917c4.584,1.667 9.584,2.083 18.334,3.75c-8.75,10.833 -14.584,22.083 -23.75,29.167c-27.917,22.083 -55,45 -85.417,62.916c-61.667,36.25 -127.083,65 -197.917,80c-74.166,15.834 -148.333,12.917 -222.083,-3.333c-75.417,-16.25 -147.5,-42.917 -219.167,-70c-23.75,-9.167 -48.75,-15.417 -72.916,-24.167c-11.667,-4.166 -16.25,0.417 -17.5,11.25c-4.584,47.084 11.25,92.084 65,93.334c8.333,0.416 16.25,2.5 24.583,2.916c25,1.25 36.25,12.917 32.083,37.917c-8.333,52.083 -18.333,104.167 -27.5,156.667c-10.833,60.833 -21.25,121.666 -31.666,182.5c-1.25,8.333 -4.584,12.083 -13.75,12.083c-71.667,-0.417 -143.334,0 -215,-0.417c-9.167,0 -18.334,-2.083 -29.167,-2.916c-5,-26.667 -10,-53.334 -14.583,-80c-14.584,-86.25 -29.167,-172.084 -43.75,-258.334c-7.5,-43.75 -4.167,-40 36.666,-47.916c18.334,-3.334 37.917,-6.25 54.584,-14.584c24.166,-12.083 36.666,-62.916 25.416,-87.916c-4.166,-9.584 -10,-7.917 -17.083,-5.417c-43.75,16.25 -87.917,32.5 -131.667,49.167c-85,32.083 -171.666,53.75 -263.75,56.666c-109.583,3.334 -207.916,-26.666 -301.666,-78.333c-46.25,-25.833 -90.417,-55.417 -134.584,-85.833c197.917,-75 390.417,-154.167 547.5,-307.5c-149.166,-21.667 -283.333,-71.25 -407.5,-159.584c21.667,-10 38.75,-18.75 56.667,-25.416c109.167,-40.417 210.417,-95.834 302.5,-166.667c72.917,-55.833 133.75,-123.333 182.083,-202.083c1.25,-1.667 1.667,-3.75 2.5,-6.25c-57.916,-16.667 -115.833,-30.834 -172.083,-50.417c-56.25,-19.583 -109.583,-45.833 -154.583,-92.5c20,-8.75 37.916,-17.917 56.25,-25c80,-31.25 153.75,-72.917 218.333,-130c62.917,-55.833 114.583,-121.25 158.75,-192.5c2.917,-4.583 5.417,-9.583 7.917,-14.583c2.083,-5 4.166,-10 6.25,-16.25c-74.584,-12.084 -150.834,7.083 -226.667,-20c78.75,-57.084 145.417,-120.417 197.083,-197.084c51.25,-75.833 97.5,-155 147.917,-235.833Z" style="fill:#00863d;fill-rule:nonzero;stroke:#00863d;stroke-width:4.17px;"/><path d="M676.832,2397.32c6.795,-0.832 9.484,-4.615 10.578,-11.906c10.417,-60.834 20.833,-121.667 31.667,-182.5c9.166,-52.5 19.166,-104.584 27.5,-156.667c4.166,-25 -7.084,-36.667 -32.084,-37.917c-8.333,-0.416 -16.25,-2.5 -24.583,-2.916c-53.75,-1.25 -69.583,-46.25 -65,-93.334c1.25,-10.833 5.833,-15.416 17.5,-11.25c12.127,4.391 24.463,8.152 36.743,11.968c-4.353,46.824 11.592,91.372 65.068,92.616c8.333,0.416 16.25,2.5 24.583,2.916c25,1.25 36.25,12.917 32.083,37.917c-8.333,52.083 -18.333,104.167 -27.5,156.667c-10.833,60.833 -21.25,121.666 -31.666,182.5c-1.25,8.333 -4.584,12.083 -13.75,12.083c-17.05,-0.099 -34.099,-0.151 -51.139,-0.177Zm-1.922,-1939.41c52.917,-3.334 107.227,-3.334 54.311,-0c94.583,194.583 248.75,310.833 457.083,367.083c-17.5,15.833 -32.083,30.833 -48.75,43.333c-47.083,35.834 -101.667,57.084 -158.333,72.5c-42.084,11.667 -84.584,20.834 -130.417,32.084c13.333,20.833 24.167,42.5 39.583,61.25c28.75,35.416 58.75,70.416 90.417,102.916c52.083,53.75 113.75,95.834 180,129.167c72.917,36.667 147.917,69.583 224.167,105c-14.167,12.917 -28.75,29.583 -46.667,42.083c-70.833,50.417 -150.417,80.834 -235,99.167c-36.25,7.917 -72.083,15.417 -114.583,24.167c20.833,19.583 37.5,38.333 57.083,52.5c55,39.166 110,79.166 168.333,112.916c49.167,28.75 102.5,50.417 155.417,72.5c43.333,17.917 87.917,32.084 132.083,47.917c4.584,1.667 9.584,2.083 18.334,3.75c-8.75,10.833 -14.584,22.083 -23.75,29.167c-27.917,22.083 -55,45 -85.417,62.916c-61.667,36.25 -127.083,65 -197.917,80c-42.623,9.1 -85.247,12.006 -127.789,9.747c24.484,-1.333 48.981,-4.517 73.479,-9.747c70.833,-15 136.25,-43.75 197.916,-80c30.417,-17.916 57.5,-40.833 85.417,-62.916c9.167,-7.084 15,-18.334 23.75,-29.167c-8.75,-1.667 -13.75,-2.083 -18.333,-3.75c-44.167,-15.833 -88.75,-30 -132.084,-47.917c-52.916,-22.083 -106.25,-43.75 -155.416,-72.5c-58.334,-33.75 -113.334,-73.75 -168.334,-112.916c-19.583,-14.167 -36.25,-32.917 -57.083,-52.5c42.5,-8.75 78.333,-16.25 114.583,-24.167c84.584,-18.333 164.167,-48.75 235,-99.167c17.917,-12.5 32.5,-29.166 46.667,-42.083c-76.25,-35.417 -151.25,-68.333 -224.167,-105c-66.25,-33.333 -127.916,-75.417 -180,-129.167c-31.666,-32.5 -61.666,-67.5 -90.416,-102.916c-15.417,-18.75 -26.25,-40.417 -39.584,-61.25c45.834,-11.25 88.334,-20.417 130.417,-32.084c56.667,-15.416 111.25,-36.666 158.333,-72.5c16.667,-12.5 31.25,-27.5 48.75,-43.333c-208.333,-56.25 -362.5,-172.5 -457.083,-367.083Zm-304.83,-9.539c6.504,0.133 13.004,0.172 19.5,0.167c-6.494,-0.134 -12.993,-0.173 -19.5,-0.167Z" style="fill:#006e3d;fill-rule:nonzero;stroke:#00863d;stroke-width:4.17px;"/></g></g><g><path d="M1702.01,1277.28c-0.072,19.193 -5.961,38.531 -23.118,53.544c-17.121,15.049 -46.747,26.499 -95.82,26.499l-98.764,0l-0,-158.379l94.366,0c44.02,0 75.245,8.943 94.838,22.865c19.52,14.031 28.353,32.461 28.498,55.471" style="fill:#fff;fill-rule:nonzero;"/><path d="M1622,1087.64c18.394,-13.232 27.263,-31.989 27.372,-60.088c-0.073,-19.302 -5.598,-35.841 -19.484,-48.164c-13.922,-12.359 -37.55,-21.119 -75.718,-21.119l-69.865,-0l-0,150.09l47.946,0c41.512,0 71.247,-7.379 89.749,-20.719" style="fill:#fff;fill-rule:nonzero;"/><path d="M1808.55,1288.92c0.255,-73.21 -48.491,-128.862 -126.535,-150.236c21.083,-10.76 37.731,-23.919 49.945,-39.95c16.285,-21.519 24.1,-47.873 23.991,-78.625c0.109,-37.732 -14.758,-76.227 -46.637,-105.053c-31.916,-28.79 -80.335,-47.437 -146.42,-47.401l-182.515,0l0,580.37l214.213,0c76.408,0 130.062,-20.719 164.594,-51.435c34.57,-30.571 49.401,-70.702 49.364,-107.67m203.453,271.573l-856.306,0l0,-805.815l856.306,0l0,805.815Z" style="fill:#fff;fill-rule:nonzero;"/><path d="M635.343,1087.64c18.357,-13.232 27.262,-31.989 27.408,-60.088c-0.036,-19.302 -5.598,-35.841 -19.484,-48.164c-13.958,-12.359 -37.586,-21.119 -75.79,-21.119l-69.793,-0l-0,150.09l47.946,0c41.476,0 71.21,-7.379 89.713,-20.719" style="fill:#fff;fill-rule:nonzero;"/><path d="M686.851,1221.81c-19.556,-13.922 -50.818,-22.865 -94.802,-22.865l-94.365,0l-0,158.379l98.764,0c49.073,0 78.626,-11.45 95.783,-26.499c17.157,-15.013 23.083,-34.351 23.119,-53.544c-0.146,-23.01 -8.979,-41.44 -28.499,-55.471" style="fill:#fff;fill-rule:nonzero;"/><path d="M821.929,1288.92c0.255,-73.21 -48.564,-128.862 -126.499,-150.236c21.01,-10.76 37.659,-23.919 49.836,-39.95c16.358,-21.519 24.101,-47.873 24.064,-78.625c0.036,-37.732 -14.794,-76.227 -46.674,-105.053c-31.879,-28.79 -80.298,-47.437 -146.383,-47.401l-182.551,0l-0,580.37l214.213,0c76.444,0 130.061,-20.719 164.594,-51.435c34.533,-30.571 49.473,-70.702 49.4,-107.67m203.453,271.573l-856.269,0l-0,-805.815l856.269,0l0,805.815Z" style="fill:#fff;fill-rule:nonzero;"/><path d="M2828.62,1292.66l-13.74,8.397c-66.304,40.494 -138.423,62.195 -203.926,62.159c-140.24,-0.545 -232.57,-83.642 -232.933,-204.544c0.145,-118.32 96.583,-205.888 229.371,-206.179c67.648,0.036 128.898,17.521 201.708,57.433l13.377,7.343l-0,-107.997l-5.744,-2.253c-82.079,-32.389 -145.656,-46.82 -208.433,-46.783c-97.092,-0.036 -181.315,32.024 -241.33,86.404c-59.978,54.417 -95.638,131.225 -95.565,219.448c0.036,61.468 25.372,133.478 79.68,190.658c54.126,57.179 137.55,98.836 251.944,98.8l0.4,-0c94.875,-0 160.669,-21.12 220.138,-50.454l5.053,-2.472l-0,-109.96Zm170.047,267.829l-856.27,0l0,-805.815l856.27,0l0,805.815Z" style="fill:#fff;fill-rule:nonzero;"/></g><g><path d="M3461.04,1124.42c-24.106,-0 -61.241,0.718 -96.421,7.903c-6.515,-16.525 -14.333,-31.613 -21.5,-45.264c-11.727,-21.554 -19.545,-38.797 -19.545,-38.797c-7.166,-16.525 -11.075,-30.176 -13.029,-42.39c87.951,-43.827 118.571,-87.653 118.571,-87.653c22.803,-30.176 13.682,-49.575 8.47,-57.478c-8.47,-13.651 -29.969,-10.777 -29.969,-10.777c0,-0 -74.27,3.592 -134.207,89.09c-14.333,20.117 -22.151,39.516 -25.409,56.759c-14.333,5.748 -31.271,12.215 -48.862,20.118c-42.998,18.68 -88.603,42.39 -117.92,81.187c-29.317,38.079 -30.62,74.003 -22.802,97.712c12.378,35.924 37.135,44.545 51.468,47.419c3.909,0.719 7.166,-4.31 4.56,-8.621c-5.863,-11.496 -7.818,-25.865 -6.515,-40.235c7.167,-70.41 74.27,-120.703 139.42,-155.908c3.909,29.457 18.242,51.011 25.408,61.07c0,-0 16.287,20.836 31.272,47.419c-56.68,17.243 -107.497,48.138 -123.784,99.149c-23.454,71.847 41.044,86.935 41.044,86.935c8.469,2.156 16.287,2.156 24.757,2.156c63.195,-2.156 110.102,-40.235 130.95,-104.897c7.166,-22.991 3.909,-49.575 -4.561,-75.44c18.242,-4.311 41.045,-6.466 68.407,-7.184c1.955,-0 3.258,-0 4.561,-0.719c7.818,-4.311 14.333,-10.058 18.242,-16.525c1.303,-2.155 -0,-5.029 -2.606,-5.029Zm-26.06,-234.222c-0,0 -3.909,-20.117 -6.515,-27.302c-0,0 16.287,10.777 6.515,27.302Zm-91.209,26.584c34.529,-45.264 69.058,-45.264 69.058,-45.264c0,-0 7.166,-0 9.772,3.592c3.258,5.03 0,20.117 -13.029,33.768c-24.106,26.584 -69.71,49.575 -97.073,61.789c5.212,-16.525 15.636,-33.05 31.272,-53.885Zm-16.939,311.098c-9.772,52.448 -63.195,94.838 -97.073,80.469c0,-0 -40.392,-14.37 -13.681,-69.692c12.378,-25.865 46.256,-53.167 99.027,-71.129c9.121,20.836 15.636,43.109 11.727,60.352Z" style="fill:#fff;fill-rule:nonzero;"/><path d="M3469.51,1332.77c68.407,1.437 127.693,-142.258 138.768,-170.997c2.606,-5.747 3.258,-12.214 1.955,-17.961c-1.303,-5.748 -3.258,-10.777 -5.864,-15.088c-1.303,-2.874 -5.863,-2.874 -7.166,0.718c-46.908,125.014 -110.103,181.055 -125.739,178.181c-13.029,-2.155 -12.378,-60.351 13.03,-160.937c73.619,-46.701 101.633,-135.792 101.633,-135.792c45.605,-140.102 -24.756,-140.82 -24.756,-140.82c-71.665,-2.156 -127.693,239.251 -127.693,239.251c-0,0 -59.286,222.008 35.832,223.445Zm105.542,-440.423c-0,-0 -16.287,12.214 -22.151,30.175c0,0 -2.606,-30.894 22.151,-30.175Zm0.651,18.68c0,-0 7.818,39.516 -10.423,93.401c-11.076,33.05 -33.227,76.877 -71.013,110.645c14.984,-48.856 61.892,-190.395 81.436,-204.046Z" style="fill:#fff;fill-rule:nonzero;"/><path d="M3640.85,1332.06c101.633,10.777 164.176,-157.345 169.388,-171.714c-0,-0.719 0.651,-1.437 0.651,-2.156c2.606,-11.495 0,-22.991 -3.257,-29.457c-0.651,-2.874 -4.56,-2.874 -5.863,-0c-13.682,34.486 -76.225,181.055 -153.101,176.025c-33.878,-4.31 -31.272,-49.574 -23.454,-86.216c26.711,-2.156 85.997,-15.807 108.799,-91.965c30.62,-104.178 -28.665,-104.897 -28.665,-104.897c-72.316,-0.718 -114.663,111.364 -114.663,111.364c-0,-0 -81.437,183.928 50.165,199.016Zm46.907,-290.262c3.258,-2.874 9.773,-4.311 14.333,-2.156c0,0 -15.636,7.903 -22.151,22.991c0,0 0,-13.651 7.818,-20.835Zm-46.907,125.732c-0,0 43.65,-120.703 68.407,-119.266c-0,-0 16.938,7.903 -5.212,77.595c-17.591,52.448 -54.074,66.099 -72.316,69.692c4.56,-16.525 9.121,-28.021 9.121,-28.021Z" style="fill:#fff;fill-rule:nonzero;"/><path d="M3818.06,1332.77c68.407,-2.156 120.526,-151.598 127.693,-173.152c0.651,-2.874 1.303,-5.748 1.303,-7.903c-0,-7.903 -2.606,-15.806 -5.864,-21.554c-1.954,-3.593 -7.166,-2.874 -8.469,0.718c-43.65,126.451 -102.936,185.366 -112.709,177.463c-12.378,-10.059 14.333,-123.577 45.605,-212.668c1.303,-2.874 1.954,-6.466 1.954,-9.34c2.606,-30.176 -16.938,-46.701 -37.786,-51.012c-6.515,-0.718 -12.379,2.874 -14.985,10.059c-44.953,126.451 -46.907,192.551 -46.907,192.551c-8.469,99.149 50.165,94.838 50.165,94.838Zm40.393,-250.028c-0,15.088 -6.515,17.961 -6.515,17.961c-0,0 3.257,-25.146 -1.955,-36.642c0,0 9.121,4.311 8.47,18.681Zm-7.818,-55.323c18.241,15.088 31.271,-6.466 36.483,-17.962c1.955,-4.31 3.258,-9.34 2.606,-14.369c-3.257,-23.71 -20.196,-31.613 -30.62,-33.768c-3.909,-0.719 -8.469,1.437 -9.772,6.466c-16.288,43.827 1.303,59.633 1.303,59.633Zm29.968,-41.671c0,-0 9.121,12.932 -2.606,27.302c0,-0 3.909,-23.71 2.606,-27.302Z" style="fill:#fff;fill-rule:nonzero;"/><path d="M3919.04,1346.42c-68.406,94.12 3.909,116.392 3.909,116.392c75.574,24.428 125.739,-88.372 155.707,-200.453c49.514,-34.487 78.179,-69.692 94.467,-103.46c5.863,-12.933 4.56,-23.71 -0,-31.613c-1.303,-1.437 -3.258,-1.437 -4.561,0.718c-22.802,45.264 -51.468,76.877 -80.785,101.305c15.636,-66.818 25.408,-127.888 28.666,-153.035c1.954,-16.525 -3.909,-32.331 -16.287,-41.671c-7.818,-5.748 -16.288,-9.34 -22.803,-10.777c-6.515,-1.437 -13.03,2.874 -14.333,10.777c0,2.155 -0.651,4.311 -0.651,7.185c-7.167,-11.496 -16.939,-19.399 -31.272,-19.399c-69.058,-0.719 -106.193,102.741 -106.193,102.741c-35.832,89.091 -2.606,155.19 48.862,157.346c20.848,0.718 38.438,-12.214 51.468,-30.176c-1.955,7.185 -4.561,14.369 -6.515,21.554c-40.393,22.991 -76.876,40.953 -99.679,72.566Zm7.818,87.653c0,0 -31.923,-4.31 5.864,-62.507c-0,0 22.802,-34.486 75.573,-66.818c-22.802,66.1 -53.422,131.481 -81.437,129.325Zm179.161,-346.303c-0,-0 -1.955,-23.71 -9.121,-38.798c0,0 17.59,6.467 9.121,38.798Zm-128.996,174.589c0,-0 -37.135,-1.437 -1.954,-113.519c-0,0 36.483,-103.46 64.498,-104.897c19.544,-0.718 13.03,63.944 11.727,79.75c-0.652,4.311 -1.303,8.622 -1.955,12.933c-5.212,16.525 -35.832,119.985 -72.316,125.733Z" style="fill:#fff;fill-rule:nonzero;"/><path d="M4166.61,1334.21l1.303,-0c7.818,-0.719 13.681,-7.185 14.984,-15.088c1.303,-7.903 3.258,-18.68 5.864,-32.331c44.953,-158.783 124.435,-235.659 127.692,-224.882c3.258,10.777 -22.802,76.158 -22.802,76.158c-27.363,73.284 -29.969,122.14 -29.969,122.14c-5.212,83.343 52.12,72.566 52.12,72.566c69.058,-2.156 121.178,-153.035 127.693,-173.87c0.651,-2.156 1.302,-4.311 1.302,-6.467c0.652,-9.34 -3.257,-17.961 -6.514,-23.709c-1.303,-2.874 -5.212,-2.156 -6.515,0.718c-43.65,127.888 -103.588,186.803 -114.012,178.9c-12.378,-10.059 24.106,-118.548 35.832,-150.161c23.454,-61.07 27.363,-111.363 -5.212,-126.451c-42.998,-18.68 -90.557,53.167 -90.557,53.167c-17.59,24.428 -33.226,52.448 -43.65,72.566c2.606,-14.37 5.863,-29.458 9.121,-44.546c2.606,-14.369 5.863,-28.02 8.469,-40.952c33.878,-24.429 71.013,-73.285 80.785,-141.539c5.212,-33.769 1.955,-53.167 -3.909,-63.944c-7.818,-15.088 -20.196,-14.37 -20.196,-14.37c-7.166,0 -13.681,2.874 -20.848,7.903c-72.967,51.73 -123.132,349.178 -135.51,431.083c-3.909,22.992 13.03,44.546 34.529,43.109Zm192.19,-237.814c0,-0 -3.909,-35.924 -9.121,-46.701c0,-0 18.894,13.651 9.121,46.701Zm-70.361,-222.008c0,-0 9.121,0.718 1.955,49.574c-5.212,34.487 -24.106,83.343 -51.468,114.237c20.847,-98.43 36.483,-163.811 49.513,-163.811Z" style="fill:#fff;fill-rule:nonzero;"/><path d="M4874.13,1156.75c49.513,-34.486 72.967,-122.858 72.967,-122.858c47.559,-170.278 -29.317,-165.249 -29.317,-165.249c-45.605,-2.155 -106.845,101.305 -139.42,163.812c0.652,-2.156 0.652,-3.593 1.303,-5.748c6.515,-23.71 11.727,-43.827 16.287,-61.07c14.333,-9.34 27.363,-21.554 39.741,-40.953c30.621,-46.701 4.561,-67.537 4.561,-67.537c-9.772,-9.34 -41.044,-20.117 -67.755,26.584c-0,-0 -16.939,27.302 -33.878,76.158c-74.27,27.302 -168.085,44.545 -200.008,96.275c-22.151,35.924 -1.955,77.595 16.938,90.528c3.258,2.155 7.167,-0.719 7.167,-5.03c-0.652,-8.621 1.303,-20.117 4.56,-28.02c20.197,-52.449 129.647,-93.401 155.056,-107.771c1.303,-0.718 1.954,-1.437 3.257,-2.155c-24.757,89.809 -73.619,301.758 6.515,330.497c5.212,1.437 9.772,-3.593 7.818,-8.622c-5.863,-18.68 -10.424,-65.381 13.03,-181.773c6.515,57.477 27.363,175.307 86.648,187.521c0,-0 54.726,14.369 65.801,-46.701c0.652,-3.592 -3.257,-6.466 -6.515,-5.029c-8.469,5.748 -22.802,12.214 -40.392,5.029c-34.529,-14.369 -57.983,-85.498 -67.756,-122.14c3.258,2.155 5.212,2.874 5.212,2.874c28.666,14.369 57.983,6.466 78.18,-8.622Zm76.224,-232.066c0,-0 -10.424,-27.302 -24.105,-41.672c0,0 24.105,0.719 24.105,41.672Zm-119.223,-48.856c3.909,2.874 0,23.709 -13.03,38.079c-2.606,2.874 -5.212,5.747 -8.469,7.903c15.636,-45.264 21.499,-45.982 21.499,-45.982Zm-56.68,202.609c31.923,-55.323 99.679,-169.56 128.996,-174.589c-0,0 24.105,-2.155 -5.212,105.615c-0,0 -39.741,138.666 -94.467,131.481c-19.544,-2.874 -26.711,-38.079 -29.317,-62.507Z" style="fill:#fff;fill-rule:nonzero;"/><path d="M4990.09,1332.77c68.407,-2.156 120.527,-151.598 127.693,-173.152c0.652,-2.874 1.303,-5.748 1.303,-7.903c0,-7.903 -2.606,-15.806 -5.863,-21.554c-1.955,-3.593 -7.167,-2.874 -8.47,0.718c-43.65,126.451 -102.936,185.366 -112.708,177.463c-12.378,-10.059 14.333,-123.577 45.604,-212.668c1.303,-2.874 1.955,-6.466 1.955,-9.34c2.606,-30.176 -16.939,-46.701 -37.787,-51.012c-6.515,-0.718 -12.378,2.874 -14.984,10.059c-44.953,126.451 -46.908,192.551 -46.908,192.551c-8.469,99.149 50.165,94.838 50.165,94.838Zm40.393,-250.028c-0,15.088 -6.515,17.961 -6.515,17.961c0,0 3.258,-25.146 -1.954,-36.642c-0,0 9.12,4.311 8.469,18.681Zm-7.818,-55.323c18.242,15.088 31.272,-6.466 36.484,-17.962c1.954,-4.31 3.257,-9.34 2.606,-14.369c-3.258,-23.71 -20.197,-31.613 -30.621,-33.768c-3.908,-0.719 -8.469,1.437 -9.772,6.466c-16.287,43.827 1.303,59.633 1.303,59.633Zm29.969,-41.671c-0,-0 9.121,12.932 -2.606,27.302c-0,-0 3.909,-23.71 2.606,-27.302Z" style="fill:#fff;fill-rule:nonzero;"/><path d="M5122.35,1328.46c39.089,6.466 69.058,-33.768 87.3,-69.692c0.651,78.314 50.816,74.003 50.816,74.003c68.407,-2.156 127.693,-142.258 138.768,-170.997c2.606,-5.747 3.258,-11.495 1.955,-17.961c-1.303,-5.748 -3.258,-10.777 -5.212,-14.37c-1.955,-3.592 -6.515,-3.592 -7.818,0c-46.908,125.733 -110.103,181.055 -125.738,178.9c-11.727,-1.437 4.56,-94.12 24.105,-168.841c65.149,-48.138 90.557,-128.607 90.557,-128.607c46.256,-140.102 -24.756,-140.82 -24.756,-140.82c-43.65,-2.156 -84.694,116.392 -104.891,187.521c-6.515,-15.088 -16.939,-25.146 -33.877,-25.865c-65.15,-2.874 -114.012,104.179 -114.012,104.179c-44.953,99.149 -34.529,183.928 22.803,192.55Zm246.264,-437.549c0,-0 -16.287,12.214 -22.151,30.175c0,0 -3.257,-31.612 22.151,-30.175Zm-1.954,20.835c-0,0 7.817,38.798 -10.424,92.683c-9.773,29.458 -28.666,67.537 -59.938,99.868c15.636,-56.041 52.12,-180.337 70.362,-192.551Zm-218.902,260.087c-0,0 48.862,-116.392 73.619,-113.518c18.893,1.436 9.772,57.477 4.56,84.061c-1.303,4.311 -1.955,8.621 -3.257,12.214l-0,0.718c-0.652,3.593 -1.303,6.466 -1.955,10.059c-5.212,15.088 -49.513,140.82 -92.512,142.257c-0,0 -31.923,-11.495 19.545,-135.791Z" style="fill:#fff;fill-rule:nonzero;"/><path d="M5429.2,1332.06c101.633,10.777 164.176,-157.345 169.388,-171.714c0,-0.719 0.652,-1.437 0.652,-2.156c2.606,-11.495 -0,-22.991 -3.258,-29.457c-0.651,-2.874 -4.56,-2.874 -5.863,-0c-13.682,34.486 -76.225,181.055 -153.101,176.025c-33.878,-4.31 -31.272,-49.574 -23.454,-86.216c26.711,-2.156 85.997,-15.807 108.799,-91.965c30.621,-104.178 -28.665,-104.897 -28.665,-104.897c-72.316,-0.718 -114.663,111.364 -114.663,111.364c-0,-0 -81.437,183.928 50.165,199.016Zm46.907,-290.262c3.258,-2.874 9.773,-4.311 14.333,-2.156c0,0 -15.636,7.903 -22.151,22.991c0,0 0,-13.651 7.818,-20.835Zm-46.907,125.732c-0,0 43.65,-120.703 68.407,-119.266c-0,-0 16.939,7.903 -5.212,77.595c-17.591,52.448 -54.074,66.099 -72.316,69.692c4.56,-16.525 9.121,-28.021 9.121,-28.021Z" style="fill:#fff;fill-rule:nonzero;"/><path d="M6705.47,1143.1c-2.606,-0.718 -5.863,-0.718 -8.469,-0.718c-5.864,-0 -5.864,-0 -3.909,-5.748c0.651,-5.029 1.954,-9.34 3.257,-14.369c1.955,-10.778 -0.651,-19.399 -7.818,-27.302c-1.954,-2.874 -3.908,-5.03 -6.514,-8.622l3.257,-0c2.606,0.718 5.212,1.437 7.166,2.155c3.909,0.719 6.515,-1.437 7.818,-5.747c1.955,-5.03 1.303,-6.467 -1.954,-8.622c-7.818,-5.748 -13.681,-12.933 -22.802,-15.806c-0,-0 -0,-0.719 -0.652,-1.437c1.955,-0.719 3.258,-1.437 4.561,-1.437l9.12,-0c5.864,0.718 10.424,-1.437 13.682,-7.185c1.303,-1.437 1.303,-3.592 1.303,-5.748c-0,-0.718 -1.955,-2.155 -2.606,-2.874c-0.652,1.437 -1.955,2.156 -1.955,3.593c0,2.874 -1.954,5.747 -4.56,6.466c-1.955,0.718 -3.909,0.718 -5.864,0.718c0.652,-2.155 1.303,-3.592 1.955,-5.747c0.651,-1.437 0.651,-2.156 0.651,-3.593c-0.651,0 -2.606,0 -2.606,0.719c-1.303,0.718 -2.605,2.874 -3.908,4.311c-2.606,3.592 -10.424,6.466 -14.985,4.31c1.955,-2.155 3.909,-3.592 5.864,-5.747c4.56,-5.03 6.515,-11.496 4.56,-18.681c0,-1.437 -1.303,-2.155 -2.606,-2.874c0,0.719 -0.651,2.156 -0.651,3.593c-0.652,0.718 -0,1.437 -0,2.155c-0.652,7.185 -6.515,15.088 -13.03,17.962c-3.909,0.718 -9.773,-2.155 -13.03,-7.185c-2.606,-3.592 -3.258,-9.34 -0,-12.214c1.954,-2.155 4.56,-3.592 6.515,-5.748c3.257,-2.155 5.863,-4.31 7.818,-6.466c1.954,-2.155 2.606,-4.311 -0,-5.748c-0.652,-0.718 -2.606,1.437 -3.909,2.874c-1.955,1.437 -3.258,4.311 -4.561,5.03c-3.257,2.155 -5.212,1.437 -5.863,-2.874c-0,-2.874 1.303,-6.466 1.303,-10.059l-0,-3.592c-0.652,0.718 -2.606,-0 -3.258,1.437c-0.651,1.437 -1.303,3.592 -1.954,5.029l-0,10.777c-0.652,2.874 -0.652,6.466 -3.909,8.622c-1.955,-2.874 -1.303,-5.748 -0,-8.622c1.303,-5.029 1.954,-10.777 1.303,-15.806c-0.652,-2.874 -1.303,-4.311 -4.561,-4.311c0,2.874 0.652,5.748 0,7.903c-0.651,4.311 -1.303,9.34 -2.605,12.933c-0,1.437 -2.606,2.155 -3.909,2.873c-0.652,-1.436 -1.955,-3.592 -1.303,-5.029c0.651,-3.592 2.606,-6.466 3.909,-9.34c0.651,-0.718 1.954,-2.155 1.954,-3.592c0,-1.437 -1.303,-2.156 -1.954,-2.874c-0.652,0.718 -1.303,1.437 -1.955,2.155c-1.303,2.874 -2.606,5.748 -4.56,7.903c-0,0.719 -1.955,1.437 -1.955,0.719c-0.651,-0.719 -1.303,-1.437 -1.303,-2.156c0.652,-2.873 1.303,-5.029 2.606,-7.903l0,-2.155c-0.651,-0 -1.954,-0.719 -2.606,-0c-3.257,2.874 -5.212,6.466 -4.56,10.777c0.651,7.903 3.909,12.932 9.772,17.962c3.909,3.592 8.469,7.184 11.727,12.214c3.909,6.466 8.469,10.777 14.984,13.651c3.258,1.437 5.864,3.592 9.121,5.747c-1.954,2.156 -3.257,3.593 -3.909,4.311c-2.606,-0.718 -5.212,-1.437 -7.818,-1.437c-3.909,0 -7.166,-0.718 -11.075,-0.718c-1.955,-0.719 -3.909,-0.719 -5.864,-1.437c-0.651,0.718 -0.651,1.437 -0.651,1.437c5.863,7.903 11.075,15.806 20.196,16.525c2.606,5.029 5.212,10.058 7.818,14.369c0.652,1.437 1.303,2.156 1.955,3.593c1.954,4.31 1.954,8.621 -1.955,10.777c-2.606,2.155 -5.212,2.874 -8.469,2.874c-7.167,0.718 -13.682,-2.156 -20.196,-5.748c-9.121,-5.03 -18.894,-8.622 -29.318,-7.185c-6.515,0.719 -9.772,-3.592 -9.772,-10.777c-0,-1.437 -0.652,-2.874 -1.303,-4.311c-1.303,0.719 -2.606,0.719 -3.909,2.156c-1.303,0.718 -2.606,2.155 -3.258,3.592c-0.651,2.155 -1.302,5.029 -0.651,7.903c-13.681,-7.903 -29.969,-15.088 -49.513,-22.273c1.302,-3.592 2.605,-6.466 3.908,-10.058c1.955,-4.311 -1.303,-8.622 -5.211,-8.622c-3.258,0 -6.515,1.437 -9.773,2.156c-6.515,1.437 -6.515,1.437 -6.515,-5.748c0,-5.748 0.652,-11.496 0,-16.525c-0.651,-12.933 -6.515,-22.273 -16.287,-28.739c-3.258,-2.155 -5.864,-4.311 -9.773,-7.185c2.606,-0.718 3.258,-1.437 3.909,-1.437l8.47,0c4.56,-0.718 6.515,-3.592 7.166,-9.34c0.652,-5.747 0,-7.184 -5.212,-9.34c-9.772,-3.592 -18.893,-10.058 -29.968,-10.058c-0,-0 -0,-0.719 -0.652,-1.437c1.303,-0.719 2.606,-2.156 4.561,-2.874c3.257,-1.437 7.166,-2.156 10.423,-2.874c7.167,-1.437 11.727,-5.748 13.682,-12.933c0.651,-2.155 0.651,-5.029 -0,-7.184c-0.652,-0.719 -2.606,-1.437 -4.561,-2.156c0,1.437 -1.303,2.874 -1.303,4.311c1.303,3.592 0,7.185 -2.606,9.34c-1.954,1.437 -4.56,1.437 -7.166,2.874c0.651,-2.874 0.651,-5.029 1.303,-7.903c-0,-1.437 -0,-2.156 -0.652,-3.592c-0.651,0.718 -2.605,0.718 -3.257,1.436c-0.651,1.437 -1.303,4.311 -1.954,6.467c-1.955,4.311 -11.076,10.777 -16.288,10.058c1.955,-2.874 3.258,-5.747 4.561,-9.34c4.56,-7.185 4.56,-15.088 0.651,-22.272c-0.651,-1.437 -2.606,-1.437 -3.909,-2.156c0,0.719 -0.651,2.156 0,3.592c0,1.437 0,2.156 0.652,2.874c1.303,8.622 -2.606,19.399 -9.773,24.428c-3.909,2.874 -11.727,1.437 -16.939,-2.873c-3.909,-3.593 -5.863,-9.341 -3.257,-14.37c1.303,-3.592 3.909,-5.748 6.515,-8.622c1.954,-2.873 4.56,-6.466 6.515,-10.058c1.303,-2.874 1.303,-5.748 -1.955,-6.466c-0.651,-0.719 -2.606,2.873 -3.909,4.31c-1.303,2.874 -1.954,5.748 -3.909,7.904c-2.606,2.873 -5.211,2.873 -6.514,-1.437c-1.303,-3.593 -1.303,-7.904 -1.303,-12.214c-0.652,-0.719 -0.652,-2.156 -1.303,-3.593c-1.303,0.719 -2.606,0.719 -3.258,2.156c-0.651,2.155 -1.303,5.029 -0.651,7.184c0.651,3.593 1.954,7.904 2.606,11.496c0.651,4.311 1.303,7.903 -1.955,11.496c-3.257,-2.156 -2.606,-6.467 -2.606,-9.341c0.652,-7.184 -0.651,-12.932 -3.257,-19.398c-0.652,-2.156 -2.606,-4.311 -5.864,-2.874c0.652,2.874 1.955,5.748 2.606,9.34c0.652,5.029 0.652,10.058 0.652,15.806c-0,1.437 -2.606,2.874 -3.909,4.311c-0.652,-2.155 -3.258,-4.311 -3.258,-5.748c0,-4.311 1.955,-7.903 2.606,-11.495c0,-1.437 0.652,-3.593 0.652,-5.03c-0.652,-1.436 -1.955,-2.155 -3.258,-2.873c0,1.437 -0.651,2.155 -1.303,3.592c-0.651,3.592 -1.303,7.185 -2.606,10.059c-0.651,0.718 -1.954,2.155 -2.606,2.155c-0.651,-0.719 -1.954,-2.155 -1.954,-2.874c-0,-2.874 0.651,-6.466 0.651,-9.34c0,-0.719 -0.651,-2.155 -0.651,-2.874c-0.652,0 -1.955,0.719 -2.606,1.437c-3.258,3.592 -3.909,8.622 -1.955,13.651c2.606,7.903 7.818,13.651 15.636,16.525c5.864,2.874 12.379,5.748 16.939,10.058c5.863,5.748 12.378,9.341 20.848,10.778c3.909,0.718 7.818,2.155 12.378,2.873c-1.954,3.593 -3.257,5.03 -3.909,6.467c-3.257,0.718 -5.863,0.718 -9.121,1.437c-3.909,0.718 -8.469,1.437 -13.03,2.873c-1.954,0 -4.56,0 -7.166,0.719l0,1.437c8.469,7.185 17.59,13.651 28.014,11.495c4.561,5.03 8.47,10.059 12.379,14.37c0.651,0.718 1.954,2.155 3.257,2.874c3.909,3.592 4.561,9.34 0.652,13.651c-1.955,2.155 -5.212,4.311 -8.47,5.748c-7.818,2.873 -16.287,2.155 -24.757,0.718c-11.726,-2.874 -23.453,-4.311 -35.18,1.437c-7.167,2.874 -11.727,-0.719 -14.333,-8.622c-0,-2.155 -1.303,-2.874 -1.955,-5.029c-1.954,1.437 -3.257,2.155 -4.56,3.592c-1.303,1.437 -1.954,3.593 -1.954,5.03c-1.955,7.903 2.606,14.369 11.075,17.243c-42.347,-2.155 -86.649,10.059 -131.602,26.583c-3.257,-10.058 -10.424,-17.961 -20.848,-22.991c-3.908,-2.155 -7.817,-5.029 -12.378,-7.903c2.606,-0.718 3.258,-1.437 4.561,-2.155c3.257,-0 7.166,-0.719 10.423,-1.437c5.864,-0.719 7.818,-5.03 8.47,-12.214c-0,-7.185 -1.303,-9.34 -7.818,-10.777c-13.03,-3.593 -25.408,-10.059 -39.09,-8.622c0,-0 0,-0.718 -0.651,-2.155c1.303,-1.437 3.257,-3.593 5.212,-4.311c3.909,-2.156 8.469,-3.593 13.03,-5.03c8.469,-2.155 13.681,-8.621 15.636,-17.961c0.651,-2.874 -0,-5.748 -1.303,-8.622c-0.652,-1.437 -3.258,-1.437 -5.212,-2.155c-0.652,1.437 -1.955,3.592 -1.303,5.747c1.303,4.311 0.651,8.622 -2.606,11.496c-1.955,2.155 -5.212,2.874 -8.47,4.311c0,-2.874 0,-5.748 0.652,-9.34c-0,-1.437 -0.652,-3.593 -0.652,-5.03c-1.954,0.719 -3.909,1.437 -3.909,2.156c-1.303,2.874 -1.954,5.747 -2.606,8.621c-1.954,6.467 -12.378,15.088 -18.893,15.088c1.303,-4.311 3.257,-7.903 5.212,-12.214c3.909,-10.058 3.257,-19.398 -2.606,-28.739c-0.652,-1.437 -3.258,-1.437 -5.212,-2.155c-0,1.437 -0,3.592 0.651,5.029c0,1.437 0.652,2.156 0.652,3.593c3.257,10.777 -0.652,24.428 -9.121,32.331c-4.56,3.592 -14.333,2.874 -21.499,-2.156c-5.864,-4.31 -8.47,-10.777 -5.864,-17.961c1.303,-3.593 4.561,-7.185 7.167,-10.777c2.606,-4.311 5.212,-9.341 7.166,-14.37c1.303,-2.874 1.303,-7.185 -2.606,-7.903c-1.303,-0 -3.909,4.311 -4.56,6.466c-1.955,3.593 -1.955,7.903 -3.909,10.059c-3.258,5.029 -6.515,4.311 -9.121,-0.719c-1.303,-4.311 -1.955,-9.34 -2.606,-14.369c-0.652,-2.156 -1.303,-3.592 -1.955,-5.029c-1.303,0.718 -3.909,1.437 -3.909,2.873c-0.651,2.874 -0.651,6.467 0,9.341c0.652,5.029 3.258,9.34 4.561,14.369c1.303,5.029 2.606,10.059 -1.303,14.369c-4.56,-2.155 -4.56,-7.184 -4.56,-11.495c-0,-8.622 -1.955,-15.806 -5.864,-22.991c-1.303,-3.593 -3.909,-5.748 -7.818,-3.593c1.303,4.311 3.258,7.185 4.561,11.496c0.651,6.466 1.954,12.933 1.954,19.399c0,2.155 -2.606,4.311 -3.909,5.748c-1.954,-2.156 -4.56,-4.311 -4.56,-6.467c-0.652,-5.029 0.651,-9.34 1.303,-14.369c0.651,-2.156 0.651,-5.029 -0,-6.466c-0,-1.437 -1.955,-2.156 -3.258,-3.593c-0.651,1.437 -1.303,3.593 -1.303,5.03c-1.303,4.31 -1.954,8.621 -2.606,12.932c-0.651,1.437 -1.954,2.874 -2.606,2.874c-1.303,-0.719 -3.257,-2.155 -3.257,-2.874c-0.652,-4.311 -0,-7.903 -0.652,-12.214c0,-0.718 0,-2.155 -0.651,-3.592c-1.303,0.718 -2.606,0.718 -3.258,2.155c-3.257,5.748 -3.909,11.496 -1.303,17.962c4.561,10.058 11.727,15.806 22.151,18.68c7.167,2.156 15.636,5.029 22.151,10.059c8.469,6.466 16.939,10.058 27.363,10.777c5.212,0.718 10.424,1.437 15.635,2.155c-1.954,4.311 -3.257,7.185 -3.909,8.622c-3.908,0.718 -7.817,1.437 -11.075,2.155c-5.212,2.156 -11.075,4.311 -16.287,5.748c-2.606,0.719 -5.864,1.437 -8.47,2.156l0,2.155c11.727,7.185 22.803,15.088 36.484,10.777c5.863,5.748 11.075,10.777 16.939,15.806c1.303,1.437 2.606,2.156 3.909,3.593c5.212,4.311 7.166,10.777 2.606,16.525c-2.606,3.592 -5.864,6.466 -9.773,8.621c-9.772,5.03 -20.847,5.03 -31.271,4.311c-14.985,-2.155 -29.969,-2.155 -44.302,6.466c-7.818,4.311 -14.333,0.719 -18.242,-9.34c-0.651,-2.155 -2.606,-3.592 -3.257,-5.029c-1.955,1.437 -4.561,2.874 -5.864,4.311c-0.651,2.155 -1.303,4.311 -1.954,7.184c-0.652,9.341 5.212,17.244 16.287,19.399c7.818,2.156 9.121,3.593 6.515,12.214c0,0.719 -0.651,0.719 -0.651,1.437c-27.363,10.777 -53.423,18.68 -77.528,22.991c-45.605,7.185 -78.831,-2.155 -103.587,-30.176c-2.606,-9.34 -7.818,-7.184 -18.242,-7.903c-4.561,-0.718 -10.424,3.593 -13.682,7.903c-5.212,5.03 -4.56,10.778 -11.075,16.525c-4.56,4.311 -8.469,2.874 -14.333,5.03c0,-0 -6.515,-5.748 -2.606,-20.836c3.909,-14.37 -7.166,-28.02 -7.166,-28.02c-8.47,-20.118 -21.5,-25.147 -42.999,-18.681c-11.727,3.593 -22.802,5.03 -33.877,0c-2.606,-0.718 -5.864,-0.718 -7.818,2.874c-1.955,2.874 -2.606,7.185 -0,12.214c1.954,4.311 5.863,4.311 7.818,2.156c7.166,-10.778 15.635,-3.593 24.105,-2.874c0.651,-0 1.954,-0 5.863,0.718c-7.818,15.088 -9.121,25.147 -6.515,37.361c-13.681,4.311 -18.242,8.621 -28.665,18.68c-0,-2.155 -4.561,-12.214 -5.864,-15.806c-0.651,-3.593 -2.606,-8.622 -5.212,-9.341c-3.257,-0.718 -7.818,1.437 -11.075,3.593c-3.909,2.155 -6.515,6.466 -10.424,9.34c-6.515,5.029 -6.515,12.214 -5.212,20.117c1.954,8.622 7.818,5.748 13.03,6.466c2.606,0 5.212,-0.718 9.121,-0.718c-5.864,16.525 -11.076,29.457 -9.773,47.419c0.652,0.719 0.652,1.437 0.652,2.155c-1.955,4.311 -3.258,8.622 -3.909,12.214c-11.727,-2.873 -23.454,-6.466 -35.181,-10.777c-23.454,-9.34 -47.559,-21.554 -70.361,-36.642c-39.741,-25.865 -63.846,-51.73 -64.498,-51.73c-3.909,-4.31 -9.772,-4.31 -13.681,0c-3.258,4.311 -3.258,11.496 0.651,15.088c0,0.719 2.606,3.593 7.167,7.903c10.424,14.37 29.968,38.079 56.68,62.508c24.756,22.272 50.816,40.952 78.179,54.603c20.848,10.777 42.347,18.681 63.846,24.428c1.303,5.03 1.955,11.496 2.606,17.244c0,-0 -16.939,-2.156 -16.939,5.029c0,0 0,5.748 12.379,5.748c20.847,0.718 39.741,2.874 60.589,3.592c24.105,0 56.679,0 80.785,-1.437c18.893,-1.437 32.574,-2.155 46.907,-8.621c16.939,-7.185 26.711,-28.021 20.197,-43.827c-0,-0 -5.212,-10.059 -9.121,-8.622c-4.561,2.156 -6.515,4.311 -5.212,9.34c3.909,10.059 3.257,19.399 -3.258,27.302c-5.212,6.466 -9.772,6.466 -14.984,-0.718c-6.515,-9.34 -8.47,-18.681 -3.258,-30.176c4.561,-10.777 6.515,-22.273 9.121,-33.768c3.909,-20.836 7.167,-28.021 25.409,-22.273c-0,0 7.817,5.029 12.378,-1.437c3.909,-7.185 -4.561,-16.525 -4.561,-16.525c-9.772,-10.777 -23.453,-8.621 -36.483,0.719c-6.515,4.311 -7.818,6.466 -13.682,11.495c-5.863,-30.175 -27.362,-3.592 -40.392,-7.903c1.954,-12.214 -7.818,-25.146 -9.773,-28.739c14.333,-9.34 10.424,-12.214 24.757,-28.02c0.652,-0.719 0.652,-1.437 1.303,-1.437c0,-0 3.909,-0.719 7.818,-2.155c6.515,7.903 22.151,25.146 50.817,38.797c19.544,9.34 41.695,15.088 65.149,17.243c-0.652,1.437 -1.955,2.874 -3.258,4.311c-1.303,1.437 -1.954,3.593 -3.908,4.311c-13.03,2.874 -13.03,7.903 -13.03,19.399c-0,3.592 1.303,7.184 1.954,11.495c3.258,-2.155 6.515,-4.311 9.121,-7.184c10.424,-10.059 20.196,-20.836 30.62,-31.613c29.969,-0 62.544,-5.03 97.073,-15.807c29.317,-9.34 56.028,-19.398 82.739,-29.457c9.121,-3.592 17.591,-7.185 26.712,-10.777c-2.606,7.903 -5.212,15.088 -7.818,22.273c-1.303,2.155 -1.955,3.592 -3.909,5.029c-3.909,4.311 -7.818,7.903 -11.727,11.495c-1.303,1.437 -2.606,3.593 -3.258,5.748c-1.303,5.03 -1.954,10.059 -2.606,15.088c0,1.437 0,2.874 0.652,3.593c1.303,0.718 3.257,0.718 3.909,-0c4.56,-3.593 9.121,-7.185 13.03,-11.496c13.03,-16.525 20.196,-36.642 26.711,-56.759c8.469,-3.593 16.939,-6.467 25.408,-8.622c0,2.155 0.652,4.311 1.303,6.466c1.955,-1.437 5.212,-2.874 7.167,-4.311c2.606,-2.873 5.863,-5.029 8.469,-7.903c21.499,-5.748 42.999,-10.058 65.801,-12.214c30.62,-3.592 61.892,-2.155 94.466,4.311c-1.303,3.592 -1.954,7.185 -2.606,10.777c-0.651,0.719 -0.651,2.156 0,2.874c0.652,0.718 1.955,0.718 3.258,0c3.257,-2.155 7.166,-4.311 10.424,-7.903c1.303,-0.719 1.954,-1.437 3.257,-2.874c13.03,2.874 26.711,7.185 40.393,11.495c-4.561,2.874 -9.773,5.03 -14.985,5.748c-3.257,0.719 -5.863,3.593 -9.12,5.03c-0.652,0.718 -1.955,1.437 -3.258,1.437c-9.121,-1.437 -9.772,2.155 -12.378,8.621c-0.652,2.874 -0.652,5.748 -1.303,7.903c2.606,-0.718 5.212,-0.718 7.166,-2.155c11.076,-4.311 22.151,-9.34 32.575,-14.369c8.469,-4.311 16.287,-4.311 23.454,2.155c-0,0.718 1.303,0.718 1.954,0.718c9.121,5.748 18.893,7.904 28.014,1.437c9.773,-6.466 17.591,-6.466 27.363,0.719c9.121,7.185 20.196,10.777 31.923,9.34c0.652,5.029 4.561,5.029 7.818,5.029l6.515,0c3.909,0 7.166,0 11.075,-0.718c-4.56,5.748 -8.469,10.058 -12.378,15.088c-0.651,0.718 -1.954,1.437 -3.257,2.155c-3.258,1.437 -6.515,2.874 -9.773,4.311c-1.303,-0 -2.606,1.437 -3.257,2.155c-1.955,2.874 -3.258,5.748 -4.561,9.34c-0.651,0.719 -0.651,2.156 -0.651,2.156c0.651,0.718 1.954,1.437 2.606,0.718c3.257,-0.718 7.166,-1.437 10.424,-3.592c14.332,-7.903 24.105,-21.554 33.877,-35.205c2.606,-2.874 0.652,-7.185 -2.606,-8.622Zm-779.837,155.19c13.03,-2.874 18.893,-5.748 27.363,-12.932c1.954,7.184 4.56,13.651 7.817,22.272c-9.12,0.719 -16.287,1.437 -24.105,2.874c-9.121,1.437 -11.727,-4.311 -11.075,-12.214Zm-267.764,-91.246c-13.03,-11.495 -24.105,-22.991 -33.226,-33.768c9.121,7.185 20.196,15.088 31.923,22.991c24.105,15.807 48.862,28.739 73.619,38.798c14.333,5.029 28.014,9.34 41.695,12.932c2.606,12.214 10.424,22.991 18.894,34.487c-18.894,-5.03 -37.787,-12.933 -56.029,-22.273c-27.362,-13.651 -52.771,-31.613 -76.876,-53.167Zm162.873,102.742c-10.424,1.437 -14.984,-3.593 -14.984,-14.37c16.939,4.311 32.575,5.748 47.559,7.185c2.606,0.718 4.56,2.874 6.515,4.311c-13.681,2.155 -26.06,2.155 -39.09,2.874Zm93.815,-8.622l0,8.622c-24.105,2.874 -41.044,0.718 -44.301,-7.185c15.636,0.718 26.06,-0 44.301,-1.437Zm63.195,-142.976c4.561,2.156 9.773,4.311 14.985,5.748c10.424,2.874 21.499,4.311 33.877,4.311c8.47,-0 18.242,-0.719 28.666,-2.156c11.727,-2.155 23.454,-5.029 35.832,-8.621c-7.818,10.777 -15.636,20.117 -26.711,27.302l-0.652,-0c-24.756,-1.437 -47.559,-7.185 -67.755,-16.525c-7.166,-2.874 -13.03,-6.467 -18.242,-10.059Zm196.751,11.496c-31.271,10.058 -60.589,15.088 -87.951,15.806c-0,0 -0,-0.718 0.651,-0.718c9.121,-10.059 19.545,-15.088 32.575,-10.059c1.303,-0 2.606,-0 3.257,0.718c15.636,1.437 29.969,-0.718 39.741,-15.087c10.424,-14.37 22.151,-19.399 39.09,-14.37c16.287,4.311 32.575,2.874 48.21,-6.466c0.652,1.437 1.303,2.155 1.955,2.874c-24.757,9.34 -50.165,18.68 -77.528,27.302Zm121.83,-60.352c-3.909,0.719 -7.818,2.155 -11.727,3.592c-7.818,3.593 -7.818,3.593 -8.47,-5.747c-0.651,-7.185 -1.303,-14.37 -1.954,-21.555l-0,-0.718c44.953,-16.525 90.557,-28.739 132.253,-25.865c-0.652,1.437 -1.303,2.155 -2.606,3.592c-6.515,5.03 -13.681,7.904 -21.499,7.904c-3.258,-0.719 -6.515,0.718 -8.47,3.592c-7.166,8.622 -14.333,15.806 -24.105,20.836c-3.258,1.437 -5.212,5.747 -8.469,8.621c-0.652,0.719 -1.955,2.156 -3.258,2.156c-8.469,1.437 -10.424,3.592 -11.075,9.34c-7.818,2.155 -15.636,5.029 -23.454,7.903c0.651,-1.437 0.651,-2.155 1.303,-3.592c1.303,-5.748 -2.606,-10.777 -8.469,-10.059Zm112.056,-11.495c-18.241,1.436 -35.18,5.029 -52.119,8.621c3.909,-2.874 7.166,-6.466 11.075,-9.34c8.47,-7.185 16.939,-10.777 27.363,-5.748c0.651,0.719 1.303,0.719 1.954,0.719c12.379,2.874 24.106,2.155 32.575,-7.903c9.121,-10.778 18.893,-13.651 31.272,-8.622c12.378,5.029 26.06,5.029 39.089,-0.719c1.955,5.03 5.864,5.03 10.424,3.593c1.955,-0.719 3.258,-1.437 5.212,-2.156c3.258,1.437 7.167,2.156 10.424,3.593c-1.954,4.311 -3.909,8.621 -5.863,12.214c-0.652,1.437 -1.955,2.874 -3.258,4.311c-2.606,2.155 -5.863,4.31 -8.469,6.466c-34.529,-7.185 -67.104,-8.622 -99.679,-5.029Zm114.012,7.903c5.212,-6.467 9.121,-14.37 13.03,-22.273c26.059,9.34 45.604,19.399 62.543,28.739c-0,0.718 -0.652,0.718 -0.652,1.437c-1.303,1.437 -2.606,2.155 -3.909,2.874c-5.863,2.874 -12.378,3.592 -18.893,0.718c-2.606,-0.718 -5.212,-0.718 -7.818,1.437l-0.651,0c-14.985,-5.029 -29.317,-9.34 -43.65,-12.932Z" style="fill:#fff;fill-rule:nonzero;"/></g></g></svg>