<?xml version="1.0" encoding="UTF-8" standalone="no"?><!DOCTYPE svg PUBLIC "-//W3C//DTD SVG 1.1//EN" "http://www.w3.org/Graphics/SVG/1.1/DTD/svg11.dtd"><svg width="100%" height="100%" viewBox="0 0 8000 2331" version="1.1" xmlns="http://www.w3.org/2000/svg" xmlns:xlink="http://www.w3.org/1999/xlink" xml:space="preserve" xmlns:serif="http://www.serif.com/" style="fill-rule:evenodd;clip-rule:evenodd;stroke-linejoin:round;stroke-miterlimit:2;"><g><rect x="0" y="-0" width="8000" height="2330.61" style="fill:#9d0a0e;"/><g><path d="M1698.93,1271.49c-0.062,16.356 -5.081,32.836 -19.702,45.63c-14.591,12.825 -39.838,22.583 -81.658,22.583l-84.168,0l0,-134.971l80.419,-0c37.515,-0 64.125,7.62 80.822,19.485c16.635,11.958 24.163,27.663 24.287,47.273" style="fill:#fff;fill-rule:nonzero;"/><path d="M1630.75,1109.88c15.675,-11.276 23.234,-27.261 23.327,-51.207c-0.062,-16.449 -4.771,-30.544 -16.605,-41.045c-11.864,-10.533 -32,-17.999 -64.527,-17.999l-59.54,0l0,127.909l40.86,-0c35.377,-0 60.717,-6.289 76.485,-17.658" style="fill:#fff;fill-rule:nonzero;"/><path d="M1789.73,1281.4c0.217,-62.389 -41.324,-109.817 -107.834,-128.032c17.967,-9.169 32.155,-20.383 42.564,-34.045c13.878,-18.339 20.538,-40.798 20.445,-67.005c0.093,-32.155 -12.577,-64.961 -39.745,-89.527c-27.198,-24.534 -68.461,-40.426 -124.779,-40.395l-155.541,0l0,494.595l182.553,0c65.116,0 110.84,-17.657 140.269,-43.834c29.46,-26.052 42.099,-60.252 42.068,-91.757m173.384,231.437l-729.749,0l-0,-686.721l729.749,0l0,686.721Z" style="fill:#fff;fill-rule:nonzero;"/><path d="M789.913,1109.88c15.643,-11.276 23.233,-27.261 23.357,-51.207c-0.031,-16.449 -4.771,-30.544 -16.604,-41.045c-11.896,-10.533 -32.032,-17.999 -64.589,-17.999l-59.478,0l-0,127.909l40.86,-0c35.346,-0 60.686,-6.289 76.454,-17.658" style="fill:#fff;fill-rule:nonzero;"/><path d="M833.808,1224.22c-16.666,-11.865 -43.307,-19.485 -80.79,-19.485l-80.419,-0l-0,134.971l84.167,0c41.82,0 67.005,-9.758 81.627,-22.583c14.622,-12.794 19.671,-29.274 19.702,-45.63c-0.124,-19.61 -7.651,-35.315 -24.287,-47.273" style="fill:#fff;fill-rule:nonzero;"/><path d="M948.923,1281.4c0.216,-62.389 -41.387,-109.817 -107.804,-128.032c17.905,-9.169 32.093,-20.383 42.471,-34.045c13.94,-18.339 20.539,-40.798 20.508,-67.005c0.03,-32.155 -12.609,-64.961 -39.776,-89.527c-27.168,-24.534 -68.431,-40.426 -124.749,-40.395l-155.571,0l-0,494.595l182.553,0c65.147,0 110.84,-17.657 140.269,-43.834c29.429,-26.052 42.161,-60.252 42.099,-91.757m173.384,231.437l-729.719,0l0,-686.721l729.719,0l-0,686.721Z" style="fill:#fff;fill-rule:nonzero;"/><path d="M2659.03,1284.59l-11.71,7.156c-56.504,34.51 -117.964,53.004 -173.787,52.973c-119.513,-0.465 -198.197,-71.281 -198.507,-174.314c0.124,-100.833 82.309,-175.459 195.471,-175.707c57.65,0.031 109.848,14.931 171.897,48.945l11.4,6.258l0,-92.036l-4.894,-1.921c-69.949,-27.601 -124.129,-39.899 -177.628,-39.868c-82.743,-0.031 -154.519,27.291 -205.663,73.634c-51.114,46.374 -81.503,111.831 -81.442,187.015c0.031,52.384 21.623,113.751 67.904,162.479c46.127,48.729 117.221,84.23 214.709,84.199l0.341,-0c80.852,-0 136.923,-17.999 187.603,-42.998l4.306,-2.106l-0,-93.709Zm144.915,228.246l-729.719,0l0,-686.721l729.719,0l-0,686.721Z" style="fill:#fff;fill-rule:nonzero;"/></g><g><path d="M3505.76,1215.32c-32.401,-0 -82.316,0.992 -129.604,10.92c-8.757,-22.833 -19.266,-43.681 -28.899,-62.543c-15.763,-29.782 -26.271,-53.607 -26.271,-53.607c-9.633,-22.833 -14.887,-41.695 -17.514,-58.572c118.22,-60.557 159.379,-121.114 159.379,-121.114c30.649,-41.695 18.39,-68.499 11.384,-79.419c-11.384,-18.862 -40.283,-14.891 -40.283,-14.891c0,0 -99.83,4.964 -180.396,123.1c-19.265,27.796 -29.774,54.6 -34.152,78.426c-19.266,7.942 -42.034,16.876 -65.678,27.796c-57.797,25.812 -119.097,58.572 -158.503,112.18c-39.407,52.615 -41.159,102.251 -30.65,135.012c16.638,49.637 49.915,61.549 69.181,65.52c5.254,0.993 9.632,-5.956 6.13,-11.912c-7.882,-15.884 -10.509,-35.739 -8.757,-55.594c9.632,-97.288 99.83,-166.779 187.401,-215.424c5.254,40.703 24.52,70.485 34.153,84.383c-0,0 21.892,28.789 42.034,65.521c-76.187,23.825 -144.492,66.513 -166.385,136.997c-31.525,99.274 55.17,120.121 55.17,120.121c11.384,2.979 21.892,2.979 33.277,2.979c84.943,-2.979 147.994,-55.594 176.017,-144.94c9.633,-31.767 5.254,-68.499 -6.13,-104.237c24.52,-5.957 55.17,-8.935 91.949,-9.928c2.628,0 4.379,0 6.13,-0.992c10.509,-5.957 19.266,-13.899 24.52,-22.833c1.752,-2.978 0,-6.949 -3.503,-6.949Zm-35.028,-323.633c0,0 -5.254,-27.796 -8.757,-37.724c-0,0 21.893,14.892 8.757,37.724Zm-122.599,36.732c46.412,-62.543 92.825,-62.543 92.825,-62.543c0,0 9.633,0 13.136,4.964c4.378,6.949 -0,27.797 -17.515,46.659c-32.401,36.731 -93.7,68.498 -130.48,85.375c7.006,-22.833 21.017,-45.666 42.034,-74.455Zm-22.768,429.855c-13.136,72.469 -84.944,131.041 -130.481,111.186c-0,0 -54.294,-19.855 -18.39,-96.295c16.639,-35.739 62.175,-73.463 133.108,-98.281c12.26,28.789 21.017,59.564 15.763,83.39Z" style="fill:#fff;fill-rule:nonzero;"/><path d="M3517.14,1503.21c91.949,1.986 171.638,-196.562 186.525,-236.271c3.503,-7.942 4.379,-16.877 2.628,-24.818c-1.752,-7.942 -4.379,-14.892 -7.882,-20.848c-1.751,-3.971 -7.881,-3.971 -9.633,0.993c-63.051,172.736 -147.994,250.169 -169.011,246.198c-17.514,-2.978 -16.639,-83.389 17.514,-222.373c98.955,-64.527 136.61,-187.627 136.61,-187.627c61.3,-193.583 -33.277,-194.576 -33.277,-194.576c-96.327,-2.978 -171.638,330.581 -171.638,330.581c-0,0 -79.69,306.756 48.164,308.741Zm141.864,-608.547c0,-0 -21.892,16.876 -29.774,41.695c0,-0 -3.503,-42.688 29.774,-41.695Zm0.876,25.811c0,-0 10.509,54.6 -14.011,129.056c-14.887,45.665 -44.661,106.222 -95.452,152.881c20.141,-67.506 83.192,-263.075 109.463,-281.937Z" style="fill:#fff;fill-rule:nonzero;"/><path d="M3747.45,1502.22c136.61,14.892 220.678,-217.409 227.684,-237.264c0,-0.992 0.876,-1.985 0.876,-2.978c3.503,-15.884 -0,-31.767 -4.379,-40.702c-0.876,-3.971 -6.13,-3.971 -7.881,0c-18.39,47.651 -102.458,250.17 -205.792,243.22c-45.536,-5.956 -42.034,-68.498 -31.525,-119.128c35.904,-2.978 115.593,-21.84 146.243,-127.07c41.158,-143.947 -38.531,-144.94 -38.531,-144.94c-97.204,-0.992 -154.125,153.874 -154.125,153.874c0,0 -109.463,254.141 67.43,274.988Zm63.051,-401.065c4.378,-3.971 13.135,-5.957 19.265,-2.978c0,-0 -21.017,10.92 -29.774,31.767c0,0 0,-18.862 10.509,-28.789Zm-63.051,173.729c-0,-0 58.672,-166.78 91.949,-164.794c0,-0 22.769,10.92 -7.005,107.215c-23.645,72.47 -72.684,91.332 -97.204,96.296c6.13,-22.833 12.26,-38.717 12.26,-38.717Z" style="fill:#fff;fill-rule:nonzero;"/><path d="M3985.65,1503.21c91.949,-2.978 162.006,-209.467 171.638,-239.249c0.876,-3.971 1.752,-7.942 1.752,-10.92c-0,-10.92 -3.503,-21.841 -7.882,-29.782c-2.627,-4.964 -9.632,-3.971 -11.384,0.992c-58.672,174.722 -138.362,256.126 -151.497,245.206c-16.639,-13.898 19.265,-170.751 61.299,-293.85c1.752,-3.971 2.627,-8.934 2.627,-12.905c3.503,-41.695 -22.768,-64.528 -50.791,-70.485c-8.757,-0.992 -16.638,3.971 -20.141,13.899c-60.424,174.721 -63.051,266.053 -63.051,266.053c-11.384,136.998 67.43,131.041 67.43,131.041Zm54.293,-345.472c0,20.847 -8.757,24.818 -8.757,24.818c0,0 4.379,-34.745 -2.627,-50.629c0,-0 12.26,5.956 11.384,25.811Zm-10.508,-76.441c24.52,20.848 42.034,-8.934 49.04,-24.818c2.627,-5.957 4.378,-12.906 3.502,-19.855c-4.378,-32.76 -27.147,-43.68 -41.158,-46.659c-5.254,-0.992 -11.384,1.986 -13.135,8.935c-21.893,60.557 1.751,82.397 1.751,82.397Zm40.282,-57.579c0,0 12.26,17.87 -3.502,37.724c-0,0 5.254,-32.76 3.502,-37.724Z" style="fill:#fff;fill-rule:nonzero;"/><path d="M4121.38,1522.08c-91.949,130.049 5.255,160.824 5.255,160.824c101.582,33.753 169.011,-122.107 209.294,-276.974c66.554,-47.651 105.085,-96.295 126.977,-142.954c7.882,-17.869 6.13,-32.76 0,-43.68c-1.751,-1.986 -4.378,-1.986 -6.129,0.992c-30.65,62.543 -69.181,106.223 -108.588,139.976c21.017,-92.324 34.152,-176.707 38.531,-211.453c2.627,-22.833 -5.254,-44.673 -21.893,-57.578c-10.508,-7.942 -21.893,-12.906 -30.65,-14.892c-8.757,-1.985 -17.514,3.971 -19.265,14.892c-0,2.978 -0.876,5.956 -0.876,9.927c-9.633,-15.884 -22.768,-26.804 -42.034,-26.804c-92.825,-0.993 -142.74,141.961 -142.74,141.961c-48.164,123.1 -3.503,214.431 65.678,217.41c28.022,0.992 51.667,-16.877 69.181,-41.695c-2.627,9.927 -6.13,19.854 -8.757,29.782c-54.294,31.767 -103.334,56.586 -133.984,100.266Zm10.509,121.114c-0,0 -42.91,-5.956 7.881,-86.368c0,-0 30.65,-47.651 101.582,-92.325c-30.649,91.332 -71.808,181.671 -109.463,178.693Zm240.82,-478.499c-0,0 -2.628,-32.76 -12.26,-53.608c-0,0 23.644,8.935 12.26,53.608Zm-173.391,241.235c0,0 -49.915,-1.985 -2.627,-156.852c0,-0 49.04,-142.954 86.695,-144.94c26.272,-0.993 17.514,88.354 15.763,110.194c-0.876,5.956 -1.751,11.913 -2.627,17.869c-7.006,22.833 -48.164,165.787 -97.204,173.729Z" style="fill:#fff;fill-rule:nonzero;"/><path d="M4454.15,1505.2l1.752,-0c10.508,-0.993 18.39,-9.928 20.141,-20.848c1.752,-10.92 4.379,-25.811 7.881,-44.673c60.424,-219.395 167.261,-325.618 171.639,-310.726c4.379,14.891 -30.649,105.23 -30.649,105.23c-36.78,101.259 -40.283,168.765 -40.283,168.765c-7.006,115.157 70.057,100.266 70.057,100.266c92.825,-2.978 162.881,-211.453 171.638,-240.242c0.876,-2.978 1.752,-5.956 1.752,-8.935c0.876,-12.905 -4.379,-24.818 -8.757,-32.76c-1.752,-3.971 -7.006,-2.978 -8.757,0.993c-58.673,176.707 -139.238,258.111 -153.249,247.191c-16.639,-13.898 32.401,-163.801 48.164,-207.482c31.525,-84.382 36.779,-153.874 -7.006,-174.721c-57.797,-25.812 -121.723,73.462 -121.723,73.462c-23.645,33.753 -44.662,72.47 -58.673,100.266c3.503,-19.854 7.881,-40.702 12.26,-61.549c3.503,-19.855 7.881,-38.717 11.384,-56.586c45.537,-33.753 95.452,-101.259 108.588,-195.569c7.006,-46.659 2.627,-73.463 -5.254,-88.354c-10.509,-20.847 -27.147,-19.855 -27.147,-19.855c-9.633,0 -18.39,3.971 -28.023,10.921c-98.079,71.477 -165.509,482.47 -182.147,595.641c-5.254,31.768 17.514,61.55 46.412,59.565Zm258.334,-328.596c0,-0 -5.254,-49.637 -12.26,-64.528c0,0 25.396,18.862 12.26,64.528Zm-94.576,-306.756c-0,0 12.26,0.993 2.627,68.499c-7.006,47.651 -32.401,115.158 -69.181,157.845c28.023,-136.005 49.04,-226.344 66.554,-226.344Z" style="fill:#fff;fill-rule:nonzero;"/><path d="M5405.17,1260c66.553,-47.652 98.079,-169.758 98.079,-169.758c63.927,-235.279 -39.407,-228.33 -39.407,-228.33c-61.3,-2.978 -143.616,139.976 -187.402,226.344c0.876,-2.978 0.876,-4.963 1.752,-7.942c8.757,-32.76 15.763,-60.556 21.893,-84.382c19.265,-12.906 36.779,-29.782 53.418,-56.586c41.158,-64.528 6.13,-93.317 6.13,-93.317c-13.136,-12.906 -55.17,-27.797 -91.074,36.731c0,-0 -22.768,37.724 -45.537,105.23c-99.831,37.724 -225.933,61.55 -268.842,133.027c-29.774,49.636 -2.627,107.215 22.768,125.084c4.379,2.979 9.633,-0.992 9.633,-6.949c-0.876,-11.913 1.751,-27.796 6.13,-38.716c27.147,-72.47 174.266,-129.056 208.419,-148.911c1.751,-0.993 2.627,-1.985 4.378,-2.978c-33.277,124.092 -98.955,416.949 8.757,456.659c7.006,1.985 13.136,-4.964 10.509,-11.913c-7.882,-25.811 -14.012,-90.339 17.514,-251.162c8.757,79.418 36.78,242.227 116.469,259.104c-0,-0 73.559,19.854 88.447,-64.528c0.875,-4.964 -4.379,-8.935 -8.758,-6.949c-11.384,7.942 -30.649,16.876 -54.293,6.949c-46.413,-19.855 -77.939,-118.136 -91.074,-168.765c4.378,2.978 7.006,3.971 7.006,3.971c38.531,19.854 77.938,8.934 105.085,-11.913Zm102.457,-320.654c0,-0 -14.011,-37.724 -32.401,-57.579c0,0 32.401,0.993 32.401,57.579Zm-160.254,-67.506c5.254,3.971 -0,32.76 -17.514,52.615c-3.503,3.971 -7.006,7.942 -11.385,10.92c21.017,-62.543 28.899,-63.535 28.899,-63.535Zm-76.187,279.951c42.91,-76.44 133.984,-234.285 173.39,-241.235c0,0 32.402,-2.978 -7.005,145.933c-0,-0 -53.418,191.598 -126.978,181.671c-26.271,-3.971 -35.904,-52.615 -39.407,-86.369Z" style="fill:#fff;fill-rule:nonzero;"/><path d="M5561.05,1503.21c91.949,-2.978 162.006,-209.467 171.638,-239.249c0.876,-3.971 1.752,-7.942 1.752,-10.92c-0,-10.92 -3.503,-21.841 -7.882,-29.782c-2.627,-4.964 -9.632,-3.971 -11.384,0.992c-58.672,174.722 -138.362,256.126 -151.497,245.206c-16.639,-13.898 19.265,-170.751 61.299,-293.85c1.752,-3.971 2.627,-8.934 2.627,-12.905c3.503,-41.695 -22.768,-64.528 -50.791,-70.485c-8.757,-0.992 -16.638,3.971 -20.141,13.899c-60.424,174.721 -63.051,266.053 -63.051,266.053c-11.384,136.998 67.43,131.041 67.43,131.041Zm54.293,-345.472c0,20.847 -8.757,24.818 -8.757,24.818c0,0 4.379,-34.745 -2.627,-50.629c0,-0 12.26,5.956 11.384,25.811Zm-10.508,-76.441c24.52,20.848 42.034,-8.934 49.04,-24.818c2.627,-5.957 4.378,-12.906 3.502,-19.855c-4.378,-32.76 -27.146,-43.68 -41.158,-46.659c-5.254,-0.992 -11.384,1.986 -13.135,8.935c-21.893,60.557 1.751,82.397 1.751,82.397Zm40.283,-57.579c-0,0 12.259,17.87 -3.503,37.724c-0,0 5.254,-32.76 3.503,-37.724Z" style="fill:#fff;fill-rule:nonzero;"/><path d="M5738.82,1497.26c52.543,8.934 92.825,-46.659 117.345,-96.296c0.876,108.209 68.305,102.252 68.305,102.252c91.95,-2.978 171.639,-196.562 186.526,-236.271c3.503,-7.942 4.379,-15.884 2.627,-24.818c-1.751,-7.942 -4.378,-14.892 -7.005,-19.855c-2.627,-4.964 -8.757,-4.964 -10.509,-0c-63.051,173.729 -147.994,250.169 -169.011,247.191c-15.763,-1.985 6.13,-130.048 32.401,-233.293c87.571,-66.513 121.723,-177.7 121.723,-177.7c62.176,-193.583 -33.277,-194.576 -33.277,-194.576c-58.672,-2.978 -113.842,160.823 -140.989,259.104c-8.757,-20.847 -22.768,-34.746 -45.536,-35.738c-87.571,-3.971 -153.249,143.946 -153.249,143.946c-60.424,136.998 -46.413,254.141 30.649,266.054Zm331.018,-604.577c0,0 -21.893,16.877 -29.774,41.695c-0,0 -4.379,-43.68 29.774,-41.695Zm-2.627,28.79c-0,-0 10.508,53.607 -14.011,128.063c-13.136,40.702 -38.532,93.317 -80.566,137.99c21.017,-77.433 70.057,-249.177 94.577,-266.053Zm-294.238,359.37c-0,0 65.678,-160.823 98.955,-156.852c25.396,1.985 13.136,79.419 6.13,116.15c-1.751,5.956 -2.627,11.913 -4.379,16.877l0,0.992c-0.875,4.964 -1.751,8.935 -2.627,13.899c-7.005,20.847 -66.554,194.576 -124.35,196.561c-0,0 -42.91,-15.883 26.271,-187.627Z" style="fill:#fff;fill-rule:nonzero;"/><path d="M6151.27,1502.22c136.61,14.892 220.678,-217.409 227.684,-237.264c0,-0.992 0.876,-1.985 0.876,-2.978c3.503,-15.884 -0,-31.767 -4.379,-40.702c-0.875,-3.971 -6.13,-3.971 -7.881,0c-18.39,47.651 -102.458,250.17 -205.792,243.22c-45.536,-5.956 -42.034,-68.498 -31.525,-119.128c35.904,-2.978 115.593,-21.84 146.243,-127.07c41.158,-143.947 -38.531,-144.94 -38.531,-144.94c-97.204,-0.992 -154.125,153.874 -154.125,153.874c0,0 -109.463,254.141 67.43,274.988Zm63.051,-401.065c4.378,-3.971 13.136,-5.957 19.265,-2.978c0,-0 -21.017,10.92 -29.774,31.767c0,0 0,-18.862 10.509,-28.789Zm-63.051,173.729c-0,-0 58.672,-166.78 91.949,-164.794c0,-0 22.769,10.92 -7.005,107.215c-23.645,72.47 -72.684,91.332 -97.204,96.296c6.13,-22.833 12.26,-38.717 12.26,-38.717Z" style="fill:#fff;fill-rule:nonzero;"/><path d="M7866.79,1241.13c-3.503,-0.993 -7.881,-0.993 -11.384,-0.993c-7.881,0 -7.881,0 -5.254,-7.942c0.876,-6.949 2.627,-12.905 4.378,-19.855c2.628,-14.891 -0.875,-26.803 -10.508,-37.724c-2.627,-3.971 -5.254,-6.949 -8.757,-11.912l4.378,-0c3.503,0.992 7.006,1.985 9.633,2.978c5.254,0.993 8.757,-1.986 10.509,-7.942c2.627,-6.949 1.751,-8.935 -2.627,-11.913c-10.509,-7.942 -18.39,-17.869 -30.65,-21.84c-0,-0 -0,-0.993 -0.876,-1.986c2.627,-0.992 4.379,-1.985 6.13,-1.985l12.26,-0c7.881,0.993 14.011,-1.986 18.39,-9.927c1.751,-1.986 1.751,-4.964 1.751,-7.942c0,-0.993 -2.627,-2.979 -3.503,-3.971c-0.875,1.985 -2.627,2.978 -2.627,4.963c0,3.971 -2.627,7.942 -6.13,8.935c-2.627,0.993 -5.254,0.993 -7.881,0.993c0.876,-2.978 1.751,-4.964 2.627,-7.942c0.876,-1.986 0.876,-2.978 0.876,-4.964c-0.876,0 -3.503,0 -3.503,0.993c-1.752,0.993 -3.503,3.971 -5.254,5.956c-3.503,4.964 -14.012,8.935 -20.142,5.957c2.627,-2.978 5.255,-4.964 7.882,-7.942c6.13,-6.949 8.757,-15.884 6.13,-25.811c-0,-1.986 -1.752,-2.979 -3.503,-3.971c-0,0.992 -0.876,2.978 -0.876,4.963c-0.876,0.993 0,1.986 0,2.979c-0.876,9.927 -8.757,20.847 -17.514,24.818c-5.254,0.993 -13.136,-2.978 -17.514,-9.927c-3.503,-4.964 -4.379,-12.906 -0,-16.877c2.627,-2.978 6.13,-4.964 8.757,-7.942c4.378,-2.978 7.881,-5.956 10.508,-8.934c2.628,-2.979 3.503,-5.957 0,-7.942c-0.875,-0.993 -3.502,1.985 -5.254,3.971c-2.627,1.985 -4.378,5.956 -6.13,6.949c-4.378,2.978 -7.005,1.985 -7.881,-3.971c-0,-3.971 1.751,-8.935 1.751,-13.898l0,-4.964c-0.875,0.993 -3.503,-0 -4.378,1.985c-0.876,1.986 -1.752,4.964 -2.627,6.95l-0,14.891c-0.876,3.971 -0.876,8.934 -5.255,11.912c-2.627,-3.971 -1.751,-7.941 0,-11.912c1.752,-6.95 2.627,-14.891 1.752,-21.841c-0.876,-3.971 -1.752,-5.956 -6.13,-5.956c-0,3.971 0.875,7.942 -0,10.92c-0.876,5.956 -1.752,12.906 -3.503,17.869c-0,1.986 -3.503,2.979 -5.254,3.971c-0.876,-1.985 -2.627,-4.963 -1.752,-6.949c0.876,-4.964 3.503,-8.935 5.255,-12.905c0.875,-0.993 2.627,-2.979 2.627,-4.964c-0,-1.986 -1.752,-2.978 -2.627,-3.971c-0.876,0.993 -1.752,1.985 -2.628,2.978c-1.751,3.971 -3.502,7.942 -6.13,10.92c0,0.993 -2.627,1.986 -2.627,0.993c-0.875,-0.993 -1.751,-1.986 -1.751,-2.978c0.876,-3.971 1.751,-6.949 3.503,-10.92l-0,-2.979c-0.876,0 -2.627,-0.992 -3.503,0c-4.379,3.971 -7.006,8.935 -6.13,14.891c0.876,10.921 5.254,17.87 13.136,24.819c5.254,4.964 11.384,9.927 15.762,16.876c5.255,8.935 11.385,14.891 20.142,18.862c4.378,1.986 7.881,4.964 12.26,7.942c-2.628,2.979 -4.379,4.964 -5.255,5.957c-3.503,-0.993 -7.005,-1.986 -10.508,-1.986c-5.254,0 -9.633,-0.992 -14.887,-0.992c-2.627,-0.993 -5.255,-0.993 -7.882,-1.986c-0.875,0.993 -0.875,1.986 -0.875,1.986c7.881,10.92 14.887,21.84 27.147,22.832c3.502,6.95 7.005,13.899 10.508,19.855c0.876,1.986 1.752,2.978 2.627,4.964c2.627,5.956 2.627,11.913 -2.627,14.891c-3.503,2.978 -7.006,3.971 -11.384,3.971c-9.633,0.993 -18.39,-2.978 -27.147,-7.942c-12.26,-6.949 -25.396,-11.913 -39.407,-9.927c-8.757,0.992 -13.136,-4.964 -13.136,-14.891c0,-1.986 -0.875,-3.971 -1.751,-5.957c-1.751,0.993 -3.503,0.993 -5.254,2.978c-1.752,0.993 -3.503,2.979 -4.379,4.964c-0.875,2.978 -1.751,6.949 -0.875,10.92c-18.39,-10.92 -40.283,-20.847 -66.554,-30.775c1.751,-4.963 3.503,-8.934 5.254,-13.898c2.627,-5.956 -1.751,-11.913 -7.006,-11.913c-4.378,0 -8.757,1.986 -13.135,2.978c-8.757,1.986 -8.757,1.986 -8.757,-7.942c-0,-7.941 0.875,-15.883 -0,-22.832c-0.876,-17.87 -8.757,-30.775 -21.893,-39.71c-4.379,-2.978 -7.881,-5.956 -13.136,-9.927c3.503,-0.993 4.379,-1.986 5.255,-1.986l11.384,0c6.13,-0.992 8.757,-4.963 9.633,-12.905c0.875,-7.942 -0,-9.928 -7.006,-12.906c-13.136,-4.964 -25.396,-13.898 -40.283,-13.898c0,-0 0,-0.993 -0.875,-1.986c1.751,-0.992 3.502,-2.978 6.13,-3.971c4.378,-1.985 9.632,-2.978 14.011,-3.971c9.633,-1.985 15.763,-7.941 18.39,-17.869c0.875,-2.978 0.875,-6.949 -0,-9.927c-0.876,-0.993 -3.503,-1.986 -6.13,-2.978c-0,1.985 -1.752,3.971 -1.752,5.956c1.752,4.964 0,9.927 -3.502,12.906c-2.628,1.985 -6.13,1.985 -9.633,3.971c0.875,-3.971 0.875,-6.95 1.751,-10.921c0,-1.985 0,-2.978 -0.876,-4.963c-0.875,0.992 -3.502,0.992 -4.378,1.985c-0.876,1.986 -1.752,5.957 -2.627,8.935c-2.627,5.956 -14.887,14.891 -21.893,13.898c2.627,-3.971 4.379,-7.942 6.13,-12.905c6.13,-9.928 6.13,-20.848 0.876,-30.775c-0.876,-1.986 -3.503,-1.986 -5.255,-2.978c0,0.992 -0.875,2.978 0,4.963c0,1.986 0,2.978 0.876,3.971c1.752,11.913 -3.503,26.804 -13.135,33.753c-5.255,3.971 -15.763,1.986 -22.769,-3.971c-5.254,-4.963 -7.881,-12.905 -4.378,-19.854c1.751,-4.964 5.254,-7.942 8.757,-11.913c2.627,-3.971 6.13,-8.935 8.757,-13.899c1.751,-3.971 1.751,-7.942 -2.627,-8.934c-0.876,-0.993 -3.503,3.971 -5.255,5.956c-1.751,3.971 -2.627,7.942 -5.254,10.92c-3.503,3.971 -7.006,3.971 -8.757,-1.985c-1.751,-4.964 -1.751,-10.92 -1.751,-16.877c-0.876,-0.992 -0.876,-2.978 -1.752,-4.963c-1.751,0.992 -3.503,0.992 -4.378,2.978c-0.876,2.978 -1.752,6.949 -0.876,9.927c0.876,4.964 2.627,10.92 3.503,15.884c0.876,5.956 1.751,10.92 -2.627,15.884c-4.379,-2.978 -3.503,-8.935 -3.503,-12.906c0.876,-9.927 -0.876,-17.869 -4.379,-26.804c-0.875,-2.978 -3.503,-5.956 -7.881,-3.971c0.876,3.971 2.627,7.942 3.503,12.906c0.875,6.949 0.875,13.898 0.875,21.84c0,1.986 -3.502,3.971 -5.254,5.957c-0.875,-2.979 -4.378,-5.957 -4.378,-7.942c-0,-5.957 2.627,-10.92 3.503,-15.884c-0,-1.986 0.875,-4.964 0.875,-6.949c-0.875,-1.986 -2.627,-2.979 -4.378,-3.971c-0,1.985 -0.876,2.978 -1.752,4.963c-0.875,4.964 -1.751,9.928 -3.503,13.899c-0.875,0.992 -2.627,2.978 -3.502,2.978c-0.876,-0.993 -2.628,-2.978 -2.628,-3.971c0,-3.971 0.876,-8.935 0.876,-12.906c0,-0.992 -0.876,-2.978 -0.876,-3.971c-0.875,0 -2.627,0.993 -3.502,1.986c-4.379,4.964 -5.255,11.913 -2.627,18.862c3.502,10.92 10.508,18.862 21.017,22.833c7.881,3.971 16.638,7.942 22.768,13.898c7.881,7.942 16.638,12.906 28.023,14.891c5.254,0.993 10.508,2.978 16.638,3.971c-2.627,4.964 -4.378,6.949 -5.254,8.935c-4.379,0.993 -7.882,0.993 -12.26,1.985c-5.254,0.993 -11.384,1.986 -17.514,3.971c-2.627,0 -6.13,0 -9.633,0.993l-0,1.985c11.384,9.928 23.644,18.862 37.655,15.884c6.13,6.949 11.385,13.899 16.639,19.855c0.876,0.993 2.627,2.978 4.378,3.971c5.255,4.964 6.13,12.905 0.876,18.862c-2.627,2.978 -7.006,5.956 -11.384,7.942c-10.509,3.971 -21.893,2.978 -33.277,0.993c-15.763,-3.971 -31.526,-5.957 -47.288,1.985c-9.633,3.971 -15.763,-0.993 -19.266,-11.913c0,-2.978 -1.751,-3.971 -2.627,-6.949c-2.627,1.985 -4.379,2.978 -6.13,4.964c-1.751,1.985 -2.627,4.963 -2.627,6.949c-2.627,10.92 3.503,19.855 14.887,23.826c-56.921,-2.979 -116.469,13.898 -176.893,36.731c-4.379,-13.899 -14.011,-24.819 -28.023,-31.768c-5.254,-2.978 -10.508,-6.949 -16.638,-10.92c3.503,-0.993 4.378,-1.985 6.13,-2.978c4.378,-0 9.633,-0.993 14.011,-1.986c7.881,-0.992 10.509,-6.949 11.384,-16.876c0,-9.927 -1.751,-12.906 -10.508,-14.891c-17.514,-4.964 -34.153,-13.898 -52.543,-11.913c0,0 0,-0.993 -0.875,-2.978c1.751,-1.986 4.378,-4.964 7.005,-5.957c5.255,-2.978 11.384,-4.963 17.514,-6.949c11.385,-2.978 18.39,-11.913 21.017,-24.818c0.876,-3.971 0,-7.942 -1.751,-11.913c-0.876,-1.985 -4.379,-1.985 -7.006,-2.978c-0.875,1.985 -2.627,4.963 -1.751,7.942c1.751,5.956 0.876,11.913 -3.503,15.883c-2.627,2.979 -7.006,3.971 -11.384,5.957c-0,-3.971 -0,-7.942 0.876,-12.906c-0,-1.985 -0.876,-4.963 -0.876,-6.949c-2.627,0.993 -5.254,1.986 -5.254,2.978c-1.752,3.971 -2.627,7.942 -3.503,11.913c-2.627,8.935 -16.639,20.848 -25.396,20.848c1.752,-5.957 4.379,-10.92 7.006,-16.877c5.254,-13.898 4.378,-26.804 -3.503,-39.709c-0.876,-1.986 -4.378,-1.986 -7.006,-2.979c0,1.986 0,4.964 0.876,6.95c0,1.985 0.876,2.978 0.876,4.963c4.378,14.891 -0.876,33.753 -12.26,44.673c-6.13,4.964 -19.266,3.971 -28.898,-2.978c-7.882,-5.956 -11.385,-14.891 -7.882,-24.818c1.752,-4.964 6.13,-9.928 9.633,-14.891c3.503,-5.957 7.006,-12.906 9.633,-19.855c1.751,-3.971 1.751,-9.927 -3.503,-10.92c-1.751,-0 -5.254,5.956 -6.13,8.935c-2.627,4.963 -2.627,10.92 -5.254,13.898c-4.379,6.949 -8.757,5.956 -12.26,-0.993c-1.752,-5.956 -2.627,-12.905 -3.503,-19.855c-0.876,-2.978 -1.751,-4.963 -2.627,-6.949c-1.752,0.993 -5.254,1.986 -5.254,3.971c-0.876,3.971 -0.876,8.935 -0,12.906c0.875,6.949 4.378,12.905 6.13,19.855c1.751,6.949 3.502,13.898 -1.752,19.854c-6.13,-2.978 -6.13,-9.927 -6.13,-15.884c0,-11.912 -2.627,-21.84 -7.881,-31.767c-1.752,-4.964 -5.254,-7.942 -10.509,-4.964c1.752,5.957 4.379,9.928 6.13,15.884c0.876,8.935 2.627,17.869 2.627,26.804c0,2.978 -3.502,5.956 -5.254,7.942c-2.627,-2.978 -6.13,-5.957 -6.13,-8.935c-0.876,-6.949 0.876,-12.905 1.752,-19.855c0.875,-2.978 0.875,-6.949 -0,-8.934c-0,-1.986 -2.628,-2.978 -4.379,-4.964c-0.876,1.986 -1.751,4.964 -1.751,6.949c-1.752,5.957 -2.627,11.913 -3.503,17.87c-0.876,1.985 -2.627,3.97 -3.503,3.97c-1.751,-0.992 -4.379,-2.978 -4.379,-3.97c-0.875,-5.957 0,-10.921 -0.875,-16.877c-0,-0.993 -0,-2.978 -0.876,-4.964c-1.751,0.993 -3.503,0.993 -4.378,2.979c-4.379,7.941 -5.255,15.883 -1.752,24.818c6.13,13.898 15.763,21.84 29.774,25.811c9.633,2.978 21.017,6.949 29.774,13.898c11.384,8.935 22.769,13.899 36.78,14.891c7.006,0.993 14.011,1.986 21.017,2.979c-2.627,5.956 -4.379,9.927 -5.254,11.912c-5.255,0.993 -10.509,1.986 -14.887,2.979c-7.006,2.978 -14.887,5.956 -21.893,7.942c-3.503,0.992 -7.881,1.985 -11.384,2.978l-0,2.978c15.763,9.927 30.65,20.847 49.039,14.891c7.882,7.942 14.887,14.891 22.769,21.84c1.751,1.986 3.503,2.978 5.254,4.964c7.006,5.956 9.633,14.891 3.503,22.833c-3.503,4.964 -7.881,8.935 -13.136,11.913c-13.135,6.949 -28.022,6.949 -42.034,5.956c-20.141,-2.978 -40.282,-2.978 -59.548,8.935c-10.508,5.956 -19.265,0.993 -24.52,-12.906c-0.875,-2.978 -3.502,-4.963 -4.378,-6.949c-2.627,1.986 -6.13,3.971 -7.882,5.956c-0.875,2.979 -1.751,5.957 -2.627,9.928c-0.875,12.905 7.006,23.826 21.893,26.804c10.508,2.978 12.26,4.963 8.757,16.876c0,0.993 -0.876,0.993 -0.876,1.986c-36.779,14.891 -71.808,25.811 -104.209,31.767c-61.299,9.928 -105.961,-2.978 -139.238,-41.695c-3.502,-12.905 -10.508,-9.927 -24.519,-10.92c-6.13,-0.992 -14.012,4.964 -18.39,10.92c-7.006,6.95 -6.13,14.891 -14.887,22.833c-6.13,5.957 -11.384,3.971 -19.266,6.949c0,0 -8.757,-7.941 -3.503,-28.789c5.255,-19.855 -9.632,-38.717 -9.632,-38.717c-11.385,-27.796 -28.899,-34.745 -57.797,-25.811c-15.763,4.964 -30.65,6.949 -45.537,0c-3.503,-0.993 -7.881,-0.993 -10.509,3.971c-2.627,3.971 -3.502,9.928 0,16.877c2.628,5.956 7.882,5.956 10.509,2.978c9.633,-14.891 21.017,-4.964 32.401,-3.971c0.876,-0 2.627,-0 7.882,0.993c-10.509,20.847 -12.26,34.745 -8.758,51.622c-18.389,5.956 -24.519,11.913 -38.531,25.811c0,-2.978 -6.13,-16.876 -7.881,-21.84c-0.876,-4.964 -3.503,-11.913 -7.006,-12.906c-4.378,-0.992 -10.508,1.986 -14.887,4.964c-5.254,2.978 -8.757,8.935 -14.011,12.906c-8.757,6.949 -8.757,16.876 -7.006,27.796c2.627,11.913 10.509,7.942 17.514,8.935c3.503,-0 7.006,-0.993 12.26,-0.993c-7.881,22.833 -14.887,40.702 -13.135,65.521c0.875,0.992 0.875,1.985 0.875,2.978c-2.627,5.956 -4.378,11.913 -5.254,16.876c-15.763,-3.97 -31.525,-8.934 -47.288,-14.891c-31.526,-12.905 -63.927,-29.782 -94.577,-50.629c-53.418,-35.739 -85.819,-71.477 -86.695,-71.477c-5.254,-5.957 -13.135,-5.957 -18.39,-0c-4.378,5.956 -4.378,15.884 0.876,20.847c0,0.993 3.503,4.964 9.633,10.92c14.011,19.855 40.283,52.615 76.187,86.368c33.276,30.775 68.305,56.586 105.085,75.448c28.022,14.892 56.921,25.812 85.819,33.753c1.751,6.95 2.627,15.884 3.503,23.826c-0,0 -22.769,-2.978 -22.769,6.949c0,0 0,7.942 16.639,7.942c28.022,0.993 53.418,3.971 81.441,4.964c32.401,-0 76.186,-0 108.587,-1.986c25.396,-1.985 43.786,-2.978 63.051,-11.912c22.769,-9.928 35.905,-38.717 27.147,-60.557c0,-0 -7.005,-13.899 -12.259,-11.913c-6.13,2.978 -8.758,5.956 -7.006,12.905c5.254,13.899 4.378,26.804 -4.379,37.724c-7.005,8.935 -13.135,8.935 -20.141,-0.992c-8.757,-12.906 -11.384,-25.811 -4.379,-41.695c6.13,-14.891 8.758,-30.775 12.26,-46.659c5.255,-28.789 9.633,-38.717 34.153,-30.775c0,0 10.509,6.949 16.638,-1.985c5.255,-9.928 -6.129,-22.833 -6.129,-22.833c-13.136,-14.891 -31.526,-11.913 -49.04,0.993c-8.757,5.956 -10.509,8.934 -18.39,15.883c-7.881,-41.695 -36.78,-4.963 -54.294,-10.92c2.627,-16.876 -10.508,-34.746 -13.136,-39.709c19.266,-12.906 14.012,-16.877 33.277,-38.717c0.876,-0.993 0.876,-1.985 1.752,-1.985c-0,-0 5.254,-0.993 10.508,-2.979c8.757,10.921 29.774,34.746 68.306,53.608c26.271,12.906 56.045,20.848 87.57,23.826c-0.875,1.985 -2.627,3.971 -4.378,5.956c-1.752,1.986 -2.627,4.964 -5.254,5.957c-17.515,3.971 -17.515,10.92 -17.515,26.804c0,4.963 1.752,9.927 2.628,15.883c4.378,-2.978 8.757,-5.956 12.259,-9.927c14.012,-13.898 27.147,-28.789 41.159,-43.68c40.282,-0 84.068,-6.95 130.48,-21.841c39.407,-12.905 75.311,-26.804 111.215,-40.702c12.26,-4.963 23.644,-9.927 35.904,-14.891c-3.503,10.92 -7.005,20.848 -10.508,30.775c-1.752,2.978 -2.627,4.964 -5.255,6.949c-5.254,5.957 -10.508,10.92 -15.762,15.884c-1.752,1.985 -3.503,4.964 -4.379,7.942c-1.751,6.949 -2.627,13.898 -3.503,20.847c0,1.986 0,3.971 0.876,4.964c1.751,0.993 4.379,0.993 5.254,-0c6.13,-4.964 12.26,-9.927 17.514,-15.884c17.515,-22.833 27.147,-50.629 35.905,-78.426c11.384,-4.964 22.768,-8.935 34.152,-11.913c0,2.978 0.876,5.957 1.752,8.935c2.627,-1.986 7.005,-3.971 9.632,-5.957c3.503,-3.971 7.882,-6.949 11.385,-10.92c28.898,-7.942 57.796,-13.898 88.446,-16.876c41.158,-4.964 83.192,-2.978 126.978,5.956c-1.752,4.964 -2.627,9.928 -3.503,14.891c-0.876,0.993 -0.876,2.978 -0,3.971c0.876,0.993 2.627,0.993 4.378,0c4.379,-2.978 9.633,-5.956 14.012,-10.92c1.751,-0.993 2.627,-1.985 4.378,-3.971c17.515,3.971 35.904,9.927 54.294,15.884c-6.13,3.971 -13.135,6.949 -20.141,7.942c-4.379,0.993 -7.881,4.963 -12.26,6.949c-0.876,0.993 -2.627,1.985 -4.378,1.985c-12.26,-1.985 -13.136,2.979 -16.639,11.913c-0.876,3.971 -0.876,7.942 -1.751,10.92c3.502,-0.992 7.005,-0.992 9.632,-2.978c14.887,-5.956 29.775,-12.905 43.786,-19.855c11.384,-5.956 21.893,-5.956 31.525,2.979c0,0.992 1.752,0.992 2.627,0.992c12.26,7.942 25.396,10.92 37.656,1.986c13.136,-8.935 23.644,-8.935 36.78,0.993c12.26,9.927 27.147,14.891 42.909,12.905c0.876,6.949 6.13,6.949 10.509,6.949l8.757,0c5.254,0 9.633,0 14.887,-0.992c-6.13,7.941 -11.384,13.898 -16.638,20.847c-0.876,0.993 -2.628,1.985 -4.379,2.978c-4.379,1.986 -8.757,3.971 -13.136,5.957c-1.751,-0 -3.502,1.985 -4.378,2.978c-2.627,3.971 -4.379,7.942 -6.13,12.905c-0.876,0.993 -0.876,2.979 -0.876,2.979c0.876,0.992 2.627,1.985 3.503,0.992c4.379,-0.992 9.633,-1.985 14.011,-4.963c19.266,-10.92 32.402,-29.782 45.537,-48.644c3.503,-3.971 0.876,-9.928 -3.503,-11.913Zm-1048.22,214.431c17.514,-3.971 25.395,-7.942 36.779,-17.869c2.627,9.927 6.13,18.862 10.509,30.774c-12.26,0.993 -21.893,1.986 -32.401,3.971c-12.26,1.986 -15.763,-5.956 -14.887,-16.876Zm-359.916,-126.078c-17.515,-15.883 -32.402,-31.767 -44.662,-46.658c12.26,9.927 27.147,20.847 42.91,31.767c32.401,21.84 65.678,39.71 98.955,53.608c19.266,6.949 37.656,12.906 56.045,17.869c3.503,16.877 14.012,31.768 25.396,47.652c-25.396,-6.949 -50.791,-17.87 -75.311,-30.775c-36.78,-18.862 -70.932,-43.681 -103.333,-73.463Zm218.927,141.962c-14.012,1.985 -20.142,-4.964 -20.142,-19.855c22.769,5.956 43.786,7.942 63.927,9.927c3.503,0.993 6.13,3.971 8.757,5.957c-18.39,2.978 -35.028,2.978 -52.542,3.971Zm126.102,-11.913l-0,11.913c-32.402,3.971 -55.17,0.992 -59.549,-9.928c21.017,0.993 35.029,0 59.549,-1.985Zm84.943,-197.555c6.13,2.978 13.136,5.957 20.142,7.942c14.011,3.971 28.898,5.957 45.536,5.957c11.385,-0 24.52,-0.993 38.532,-2.979c15.762,-2.978 31.525,-6.949 48.163,-11.913c-10.508,14.892 -21.017,27.797 -35.904,37.724l-0.875,0c-33.277,-1.985 -63.927,-9.927 -91.074,-22.832c-9.633,-3.971 -17.514,-8.935 -24.52,-13.899Zm264.464,15.884c-42.034,13.898 -81.441,20.847 -118.22,21.84c-0,0 -0,-0.993 0.875,-0.993c12.26,-13.898 26.271,-20.847 43.786,-13.898c1.751,0 3.502,0 4.378,0.993c21.017,1.985 40.283,-0.993 53.418,-20.848c14.012,-19.854 29.774,-26.803 52.543,-19.854c21.893,5.956 43.785,3.971 64.802,-8.935c0.876,1.986 1.752,2.978 2.627,3.971c-33.277,12.906 -67.429,25.811 -104.209,37.724Zm163.758,-83.39c-5.255,0.993 -10.509,2.978 -15.763,4.964c-10.509,4.964 -10.509,4.964 -11.384,-7.942c-0.876,-9.927 -1.752,-19.855 -2.628,-29.782l0,-0.993c60.424,-22.833 121.724,-39.709 177.769,-35.738c-0.875,1.985 -1.751,2.978 -3.503,4.963c-8.757,6.949 -18.389,10.92 -28.898,10.92c-4.379,-0.992 -8.757,0.993 -11.384,4.964c-9.633,11.913 -19.266,21.84 -32.401,28.789c-4.379,1.986 -7.006,7.942 -11.385,11.913c-0.875,0.993 -2.627,2.978 -4.378,2.978c-11.384,1.986 -14.011,4.964 -14.887,12.906c-10.509,2.978 -21.017,6.949 -31.526,10.92c0.876,-1.985 0.876,-2.978 1.752,-4.964c1.751,-7.941 -3.503,-14.891 -11.384,-13.898Zm150.621,-15.884c-24.519,1.986 -47.288,6.95 -70.056,11.913c5.254,-3.971 9.632,-8.934 14.887,-12.905c11.384,-9.928 22.768,-14.891 36.779,-7.942c0.876,0.992 1.752,0.992 2.628,0.992c16.638,3.971 32.401,2.979 43.785,-10.92c12.26,-14.891 25.396,-18.862 42.034,-11.912c16.638,6.949 35.028,6.949 52.543,-0.993c2.627,6.949 7.881,6.949 14.011,4.963c2.627,-0.992 4.378,-1.985 7.006,-2.978c4.378,1.986 9.632,2.978 14.011,4.964c-2.627,5.956 -5.254,11.913 -7.882,16.876c-0.875,1.986 -2.627,3.971 -4.378,5.957c-3.503,2.978 -7.881,5.956 -11.384,8.935c-46.413,-9.928 -90.198,-11.913 -133.984,-6.95Zm153.249,10.92c7.006,-8.934 12.26,-19.854 17.514,-30.774c35.029,12.905 61.3,26.804 84.068,39.709c0,0.993 -0.875,0.993 -0.875,1.986c-1.752,1.985 -3.503,2.978 -5.255,3.971c-7.881,3.97 -16.638,4.963 -25.395,0.992c-3.503,-0.992 -7.006,-0.992 -10.509,1.986l-0.875,-0c-20.142,-6.949 -39.407,-12.906 -58.673,-17.87Z" style="fill:#fff;fill-rule:nonzero;"/></g></g><g><path d="M2397.22,2145.43c-38.994,-0 -72.511,-14.206 -100.55,-42.616c-28.039,-28.411 -42.059,-62.299 -42.059,-101.665c0,-39.861 14.112,-73.873 42.337,-102.036c28.225,-28.163 62.206,-42.244 101.944,-42.244c39.737,-0 73.718,14.081 101.943,42.244c28.225,28.163 42.337,62.051 42.337,101.665c-0,40.356 -14.143,74.554 -42.43,102.593c-28.287,28.039 -62.794,42.059 -103.522,42.059Zm0,-20.612c40.357,0 72.419,-14.793 96.187,-44.38c19.436,-24.139 29.153,-50.631 29.153,-79.475c0,-34.043 -12.1,-63.134 -36.302,-87.273c-24.201,-24.14 -53.323,-36.21 -87.366,-36.21c-34.043,0 -63.166,12.101 -87.367,36.302c-24.202,24.202 -36.302,53.324 -36.302,87.367c-0,33.672 12.038,62.701 36.116,87.088c24.078,24.387 52.705,36.581 85.881,36.581Zm54.407,-50.322c-17.455,6.066 -33.238,9.099 -47.351,9.099c-23.396,0 -42.553,-7.613 -57.47,-22.84c-14.917,-15.226 -22.376,-34.785 -22.376,-58.677c0,-25.007 7.273,-44.968 21.819,-59.885c14.545,-14.917 33.95,-22.376 58.213,-22.376c11.637,0 25.749,1.61 42.337,4.828l4.828,0.929l0,22.839c-16.836,-6.932 -31.938,-10.398 -45.308,-10.398c-16.341,-0 -29.494,5.818 -39.459,17.455c-9.965,11.636 -14.948,26.986 -14.948,46.051c0,18.94 5.199,33.919 15.598,44.936c10.399,11.018 24.449,16.527 42.151,16.527c13.989,-0 27.978,-3.838 41.966,-11.513l0,23.025Z" style="fill:#fff;fill-rule:nonzero;"/><path d="M2917.89,1882.62c-0,0 -28.522,3.423 -37.649,77.199c-4.183,35.748 1.141,54.762 7.986,65.03c-15.592,48.677 -31.944,93.171 -31.944,93.171c-26.621,-19.395 2.662,-165.807 8.366,-192.807c0.38,-2.662 -1.521,-4.944 -3.803,-4.944c-6.845,-0.38 -12.93,2.282 -17.873,5.704c-9.508,6.465 -15.973,16.353 -18.635,27.381c-4.183,17.494 -12.169,54.002 -14.07,90.129c-10.649,55.523 -23.198,76.058 -28.522,82.904c-5.324,-16.353 -10.268,-55.143 -0.381,-148.314c1.141,-12.93 2.662,-23.958 3.803,-33.465c7.226,-6.085 13.691,-13.691 19.395,-25.1c12.93,-27.381 -3.803,-35.747 -3.803,-35.747c-6.465,-3.803 -25.479,-6.465 -36.508,20.536c0,-0 -7.225,15.972 -12.549,42.973c-40.311,21.676 -92.791,39.93 -106.482,69.973c-9.887,20.916 5.705,40.691 17.874,45.635c1.901,0.761 4.183,-0.76 3.803,-3.042c-1.141,-4.564 -1.141,-10.648 -0.381,-15.212c7.226,-29.282 66.551,-61.607 79.862,-71.875c0.76,-0.38 1.14,-0.76 1.521,-1.141c-6.465,51.34 -15.972,172.652 42.212,166.568l-0.76,-0l0.76,-0c3.803,-3.423 13.691,-21.677 22.057,-42.213c2.662,14.071 7.226,26.241 14.451,34.607c10.268,10.648 23.578,8.747 31.564,4.944c3.043,-1.521 5.324,-3.803 6.845,-6.465c5.705,-11.789 23.198,-50.199 39.551,-92.031c9.887,4.564 21.676,-0.76 26.24,-7.986c1.141,-1.141 -0,-3.042 -1.141,-3.042c-7.606,-0.38 -13.691,-3.042 -18.254,-7.226c12.169,-32.705 22.437,-65.79 24.719,-88.988c6.085,-55.142 -18.254,-47.156 -18.254,-47.156Zm-120.933,11.789c3.043,1.141 2.282,12.55 -3.803,20.916c-1.14,1.902 -2.662,3.803 -4.183,5.324c4.944,-25.099 7.986,-26.24 7.986,-26.24Zm101.538,95.833c-5.324,-36.888 11.029,-89.748 11.029,-89.748c10.267,3.803 1.901,44.494 -11.029,89.748Zm33.466,-79.1c-0,-0 -3.423,-14.831 -8.747,-21.677c-0,0 9.888,0 8.747,21.677Z" style="fill:#fff;fill-rule:nonzero;"/><path d="M2958.58,2138.56c39.931,-1.141 70.354,-80.241 74.537,-91.65c0.38,-1.521 0.761,-3.042 0.761,-4.183c-0,-4.184 -1.521,-8.367 -3.423,-11.409c-1.141,-1.902 -4.183,-1.521 -4.944,0.38c-25.479,66.931 -60.086,98.115 -65.79,93.932c-7.226,-5.324 8.366,-65.41 26.62,-112.566c0.761,-1.521 1.141,-3.423 1.141,-4.944c1.521,-15.972 -9.887,-24.719 -22.057,-27.001c-3.803,-0.38 -7.225,1.522 -8.746,5.325c-26.24,66.931 -27.381,101.918 -27.381,101.918c-4.944,52.48 29.282,50.198 29.282,50.198Zm23.578,-132.341c0,7.986 -3.803,9.507 -3.803,9.507c0,-0 1.902,-13.31 -1.141,-19.395c0,0 5.324,2.282 4.944,9.888Zm-4.563,-29.283c10.648,7.986 18.254,-3.422 21.296,-9.507c1.141,-2.282 1.901,-4.944 1.521,-7.606c-1.901,-12.549 -11.789,-16.733 -17.874,-17.873c-2.281,-0.381 -4.943,0.76 -5.704,3.422c-9.507,23.198 0.761,31.564 0.761,31.564Zm17.493,-22.057c0,0 5.324,6.846 -1.521,14.451c-0,0 2.282,-12.549 1.521,-14.451Z" style="fill:#fff;fill-rule:nonzero;"/><path d="M3031.98,2139.32c1.902,-0 3.803,-1.902 3.803,-4.184c0.38,-5.704 1.521,-12.549 2.282,-19.775c26.24,-83.664 67.692,-121.313 73.776,-120.172c10.268,1.902 -15.211,45.635 -15.211,45.635c-20.916,34.987 -20.916,63.129 -20.916,63.129c-0.761,35.747 24.719,34.606 24.719,34.606c39.93,-1.141 79.481,-79.101 85.565,-91.65c0.761,-1.521 1.141,-3.042 1.141,-4.564c0,-4.563 -1.901,-8.746 -3.803,-11.408c-1.141,-1.902 -3.422,-1.522 -4.563,0.38c-30.804,66.171 -71.495,98.115 -77.199,93.932c-7.606,-4.944 12.929,-49.058 31.944,-79.101c20.536,-32.705 15.972,-59.325 -3.042,-66.931c-24.719,-10.268 -52.861,28.142 -52.861,28.142c-7.986,9.887 -15.211,21.296 -21.296,30.803c3.423,-9.127 6.845,-18.634 11.028,-29.663c0.761,-1.14 1.141,-2.662 1.141,-4.183c1.902,-17.113 -9.127,-28.141 -21.296,-31.184c-3.042,-0.76 -6.085,0.761 -7.606,3.803c-12.93,31.945 -20.536,60.086 -25.099,79.861c-4.944,19.776 -8.367,49.819 -8.367,63.889c1.902,11.789 14.832,18.635 25.86,18.635Zm107.242,-128.919c0,-0 -1.901,-14.451 -4.943,-18.634c-0,-0 10.648,4.943 4.943,18.634Zm-79.48,-1.902c-0,0 -0.381,-11.028 -1.902,-17.113c0,0 7.986,5.324 1.902,17.113Z" style="fill:#fff;fill-rule:nonzero;"/><path d="M3194.36,1954.12c-22.818,86.326 -26.241,133.862 -26.241,133.862c-4.183,52.48 29.283,50.579 29.283,50.579c38.029,0.761 68.452,-75.298 75.298,-90.509c1.14,-3.043 1.521,-6.465 0.76,-9.508c-0.38,-3.042 -1.901,-5.704 -3.042,-7.986c-1.141,-1.521 -3.803,-1.521 -4.564,0.381c-29.662,73.396 -60.086,101.157 -67.692,94.312c-11.408,-10.268 18.635,-120.172 34.607,-175.695c26.62,0 33.466,9.127 34.987,14.071c0.76,1.521 2.282,1.902 3.422,0.761c5.324,-5.705 15.973,-19.395 -1.14,-27.762c-6.465,-3.422 -19.776,-3.042 -33.086,-2.281c1.902,-6.465 3.423,-11.409 4.183,-14.071c0.761,-1.521 0.761,-3.423 0.381,-5.324c-2.282,-14.451 -19.775,-18.254 -27.001,-19.015c-1.901,0 -3.423,0.761 -3.803,2.662c-4.563,14.071 -8.366,27.381 -12.169,39.931c-22.057,2.282 -34.987,0.76 -43.353,-2.662c-5.324,-2.282 -8.367,-6.845 -9.888,-10.268c-0.38,-1.521 -2.662,-1.521 -3.423,-0.38c-3.422,4.943 -8.746,14.07 -5.324,21.296c4.564,10.268 13.691,14.831 57.805,7.606Zm40.31,-30.043c0,-0 -0.76,-9.507 -3.042,-14.451c0,-0 8.367,4.183 3.042,14.451Z" style="fill:#fff;fill-rule:nonzero;"/><path d="M3290.96,2138.18c59.325,5.704 95.833,-83.284 98.875,-90.89c0,-0.38 0.381,-0.76 0.381,-1.141c1.521,-6.084 -0,-12.169 -1.902,-15.592c-0.38,-1.521 -2.662,-1.521 -3.423,0c-7.986,18.254 -44.494,95.834 -89.368,93.172c-19.775,-2.282 -18.254,-26.24 -13.69,-45.635c15.591,-1.141 50.198,-8.367 63.508,-48.678c17.874,-55.142 -16.733,-55.522 -16.733,-55.522c-42.212,-0.38 -66.931,58.945 -66.931,58.945c0,0 -47.536,97.355 29.283,105.341Zm27.38,-153.638c1.902,-1.521 5.705,-2.282 8.367,-1.141c-0,0 -9.127,4.183 -12.93,12.17c-0,-0 -0,-7.226 4.563,-11.029Zm-27.38,66.551c-0,0 25.479,-63.889 39.93,-63.128c0,-0 9.888,4.183 -3.042,41.071c-10.268,27.761 -31.564,34.987 -42.213,36.888c2.662,-8.746 5.325,-14.831 5.325,-14.831Z" style="fill:#fff;fill-rule:nonzero;"/><path d="M3390.59,2139.32c1.901,-0 3.803,-1.522 3.803,-3.803c0.38,-6.085 1.521,-12.93 2.281,-20.156c26.241,-83.283 67.692,-120.932 73.777,-120.172c-0,0 -45.255,59.706 -17.874,76.439c34.226,15.972 64.65,-22.818 64.65,-22.818c3.042,-4.943 4.563,-11.789 3.803,-17.493c-0,-1.521 -2.282,-1.902 -3.043,-0.761c-11.789,17.113 -31.944,30.804 -52.1,32.705c-2.662,0 -3.802,-3.042 -1.901,-4.563c29.663,-25.86 42.593,-68.833 25.099,-79.481c-22.817,-13.69 -52.86,28.142 -52.86,28.142c-7.986,10.267 -15.212,21.296 -21.297,31.183c3.423,-9.507 6.846,-19.014 11.029,-29.662c0.76,-1.521 1.141,-3.043 1.141,-4.564c1.901,-16.733 -9.127,-28.141 -21.297,-31.184c-3.042,-0.76 -6.084,1.141 -7.605,3.803c-12.93,32.325 -20.536,60.086 -25.1,80.242c-4.943,19.775 -8.366,49.438 -8.366,63.508c1.901,11.789 14.831,18.635 25.86,18.635Zm98.115,-130.44c-0,-0 1.521,-10.268 -1.521,-18.635c-0,0 10.268,6.465 1.521,18.635Zm-71.495,-0.381c0,0 0,-11.408 -1.141,-17.113c0,0 7.606,5.705 1.141,17.113Z" style="fill:#fff;fill-rule:nonzero;"/><path d="M3849.99,1882.62c-0,0 -28.522,3.423 -37.649,77.199c-4.184,35.748 1.141,54.762 7.986,65.03c-15.592,48.677 -31.945,93.171 -31.945,93.171c-26.62,-19.395 2.662,-165.807 8.367,-192.807c0.38,-2.662 -1.521,-4.944 -3.803,-4.944c-6.845,-0.38 -12.93,2.282 -17.874,5.704c-9.507,6.465 -15.972,16.353 -18.634,27.381c-4.183,17.494 -12.169,54.002 -14.071,90.129c-10.648,55.523 -23.198,76.058 -28.522,82.904c-5.324,-16.353 -10.268,-55.143 -0.38,-148.314c1.141,-12.93 2.662,-23.958 3.803,-33.465c7.225,-6.085 13.69,-13.691 19.395,-25.1c12.93,-27.381 -3.803,-35.747 -3.803,-35.747c-6.465,-3.803 -25.48,-6.465 -36.508,20.536c-0,-0 -7.226,15.972 -12.55,42.973c-40.311,21.676 -92.791,39.93 -106.481,69.973c-9.888,20.916 5.704,40.691 17.873,45.635c1.902,0.761 4.184,-0.76 3.803,-3.042c-1.141,-4.564 -1.141,-10.648 -0.38,-15.212c7.226,-29.282 66.551,-61.607 79.861,-71.875c0.761,-0.38 1.141,-0.76 1.521,-1.141c-6.465,51.34 -15.972,172.652 42.213,166.568l-0.761,-0l0.761,-0c3.803,-3.423 13.69,-21.677 22.057,-42.213c2.662,14.071 7.225,26.241 14.451,34.607c10.267,10.648 23.578,8.747 31.564,4.944c3.042,-1.521 5.324,-3.803 6.845,-6.465c5.704,-11.789 23.198,-50.199 39.55,-92.031c9.888,4.564 21.677,-0.76 26.24,-7.986c1.141,-1.141 0,-3.042 -1.14,-3.042c-7.606,-0.38 -13.691,-3.042 -18.254,-7.226c12.169,-32.705 22.437,-65.79 24.718,-88.988c6.085,-55.142 -18.253,-47.156 -18.253,-47.156Zm-120.933,11.789c3.042,1.141 2.282,12.55 -3.803,20.916c-1.141,1.902 -2.662,3.803 -4.183,5.324c4.944,-25.099 7.986,-26.24 7.986,-26.24Zm101.538,95.833c-5.324,-36.888 11.028,-89.748 11.028,-89.748c10.268,3.803 1.902,44.494 -11.028,89.748Zm33.465,-79.1c0,-0 -3.422,-14.831 -8.746,-21.677c-0,0 9.887,0 8.746,21.677Z" style="fill:#fff;fill-rule:nonzero;"/><path d="M3909.69,2138.56c30.043,-1.141 46.776,-24.719 55.903,-49.058c27.381,-11.408 46.776,-34.226 53.621,-44.494c3.042,-4.563 3.423,-10.267 1.521,-14.451c-0.76,-1.521 -3.042,-1.521 -4.183,-0.38c-14.831,19.775 -30.804,33.846 -45.635,42.593c4.564,-19.395 5.324,-35.748 5.324,-35.748c0,0 4.564,-61.607 -37.268,-61.607c-0,0 -32.705,-1.141 -49.438,42.212c-10.648,10.268 -22.437,27.381 -27.381,54.382c-0,0 -12.169,68.452 47.536,66.551Zm55.903,-137.285c0,-0 -7.986,-10.268 -13.31,-14.831c-0,-0 12.169,1.901 13.31,14.831Zm-51.72,44.114c6.085,-42.593 25.1,-51.72 25.1,-51.72c22.817,-1.141 20.535,47.917 20.535,47.917c-1.141,15.592 -3.422,28.522 -6.845,38.789c-8.747,2.663 -16.352,3.043 -22.817,1.141c-19.395,-5.324 -15.973,-36.127 -15.973,-36.127Zm-18.634,38.029c6.465,6.465 15.972,11.028 30.423,12.549c7.226,0.761 14.452,0.381 21.297,-0.76c-14.451,31.184 -36.508,33.085 -36.508,33.085c-17.113,1.141 -17.113,-26.62 -15.212,-44.874Z" style="fill:#fff;fill-rule:nonzero;"/><path d="M4023.02,2139.32c1.901,-0 3.803,-1.902 3.803,-4.184c0.38,-5.704 1.521,-12.549 2.282,-19.775c26.24,-83.664 67.691,-121.313 73.776,-120.172c10.268,1.902 -15.212,45.635 -15.212,45.635c-20.916,34.987 -20.916,63.129 -20.916,63.129c-0.76,35.747 24.719,34.606 24.719,34.606c39.931,-1.141 79.481,-79.101 85.566,-91.65c0.76,-1.521 1.141,-3.042 1.141,-4.564c-0,-4.563 -1.902,-8.746 -3.803,-11.408c-1.141,-1.902 -3.423,-1.522 -4.564,0.38c-30.803,66.171 -71.494,98.115 -77.199,93.932c-7.606,-4.944 12.93,-49.058 31.945,-79.101c20.535,-32.705 15.972,-59.325 -3.043,-66.931c-24.719,-10.268 -52.86,28.142 -52.86,28.142c-7.986,9.887 -15.212,21.296 -21.296,30.803c3.422,-9.127 6.845,-18.634 11.028,-29.663c0.761,-1.14 1.141,-2.662 1.141,-4.183c1.901,-17.113 -9.127,-28.141 -21.296,-31.184c-3.043,-0.76 -6.085,0.761 -7.606,3.803c-12.93,31.945 -20.536,60.086 -25.099,79.861c-4.944,19.776 -8.367,49.819 -8.367,63.889c1.902,11.789 14.832,18.635 25.86,18.635Zm107.242,-128.919c0,-0 -1.901,-14.451 -4.944,-18.634c0,-0 10.648,4.943 4.944,18.634Zm-79.481,-1.902c0,0 -0.38,-11.028 -1.901,-17.113c-0,0 7.986,5.324 1.901,17.113Z" style="fill:#fff;fill-rule:nonzero;"/><path d="M4180.46,2136.28c22.817,3.423 40.31,-17.873 50.959,-36.888c0.38,41.452 29.662,39.17 29.662,39.17c39.931,-1.141 74.537,-75.298 81.002,-90.509c1.521,-3.043 1.902,-6.085 1.141,-9.508c-0.76,-3.042 -1.901,-5.704 -3.042,-7.605c-1.141,-1.902 -3.803,-1.902 -4.564,-0c-27.381,66.551 -64.269,95.833 -73.396,94.692c-6.845,-0.76 2.662,-49.818 14.071,-89.368c38.029,-25.48 52.86,-68.072 52.86,-68.072c27.001,-74.157 -14.451,-74.537 -14.451,-74.537c-25.479,-1.141 -49.438,61.607 -61.227,99.256c-3.802,-7.987 -9.887,-13.311 -19.775,-13.691c-38.029,-1.521 -66.551,55.142 -66.551,55.142c-26.24,52.48 -20.155,97.355 13.311,101.918Zm143.75,-231.597c-0,-0 -9.508,6.465 -12.93,15.972c-0,0 -1.902,-16.733 12.93,-15.972Zm-1.141,11.028c-0,0 4.563,20.536 -6.085,49.058c-5.704,15.592 -16.733,35.747 -34.987,52.86c9.127,-29.662 30.424,-95.453 41.072,-101.918Zm-127.778,137.666c-0,-0 28.522,-61.607 42.973,-60.086c11.028,0.76 5.704,30.423 2.662,44.494c-0.761,2.282 -1.141,4.563 -1.902,6.465l0,0.38c-0.38,1.902 -0.76,3.423 -1.141,5.324c-3.042,7.986 -28.902,74.537 -54.001,75.298c0,-0 -18.634,-6.085 11.409,-71.875Z" style="fill:#fff;fill-rule:nonzero;"/><path d="M4359.58,2138.18c59.325,5.704 95.833,-83.284 98.875,-90.89c0,-0.38 0.381,-0.76 0.381,-1.141c1.521,-6.084 -0,-12.169 -1.902,-15.592c-0.38,-1.521 -2.662,-1.521 -3.422,0c-7.987,18.254 -44.495,95.834 -89.369,93.172c-19.775,-2.282 -18.254,-26.24 -13.69,-45.635c15.592,-1.141 50.198,-8.367 63.508,-48.678c17.874,-55.142 -16.733,-55.522 -16.733,-55.522c-42.212,-0.38 -66.931,58.945 -66.931,58.945c0,0 -47.536,97.355 29.283,105.341Zm27.381,-153.638c1.901,-1.521 5.704,-2.282 8.366,-1.141c0,0 -9.127,4.183 -12.93,12.17c0,-0 0,-7.226 4.564,-11.029Zm-27.381,66.551c-0,0 25.479,-63.889 39.93,-63.128c0,-0 9.888,4.183 -3.042,41.071c-10.268,27.761 -31.564,34.987 -42.212,36.888c2.662,-8.746 5.324,-14.831 5.324,-14.831Z" style="fill:#fff;fill-rule:nonzero;"/><path d="M4459.21,2139.32c1.901,-0 3.803,-1.522 3.803,-3.803c0.38,-6.085 1.521,-12.93 2.282,-20.156c26.24,-83.283 67.691,-120.932 73.776,-120.172c0,0 -45.255,59.706 -17.874,76.439c34.227,15.972 64.65,-22.818 64.65,-22.818c3.042,-4.943 4.563,-11.789 3.803,-17.493c-0,-1.521 -2.282,-1.902 -3.043,-0.761c-11.789,17.113 -31.944,30.804 -52.099,32.705c-2.662,0 -3.803,-3.042 -1.902,-4.563c29.663,-25.86 42.593,-68.833 25.099,-79.481c-22.817,-13.69 -52.86,28.142 -52.86,28.142c-7.986,10.267 -15.212,21.296 -21.296,31.183c3.422,-9.507 6.845,-19.014 11.028,-29.662c0.761,-1.521 1.141,-3.043 1.141,-4.564c1.901,-16.733 -9.127,-28.141 -21.296,-31.184c-3.043,-0.76 -6.085,1.141 -7.606,3.803c-12.93,32.325 -20.536,60.086 -25.099,80.242c-4.944,19.775 -8.367,49.438 -8.367,63.508c1.902,11.789 14.831,18.635 25.86,18.635Zm98.115,-130.44c0,-0 1.521,-10.268 -1.521,-18.635c-0,0 10.268,6.465 1.521,18.635Zm-71.495,-0.381c0,0 0,-11.408 -1.141,-17.113c0,0 7.606,5.705 1.141,17.113Z" style="fill:#fff;fill-rule:nonzero;"/><path d="M4823.91,1901.26c34.607,8.747 92.031,38.79 125.877,50.959c34.226,12.17 87.466,17.113 103.058,-17.493c9.888,-21.296 2.662,-34.607 -2.662,-40.691c-1.141,-1.521 -3.803,-0.761 -4.183,1.141c-6.465,28.141 -46.015,33.465 -46.015,33.465c-58.185,7.986 -122.074,-33.085 -176.075,-41.451c-14.831,-2.282 -27.761,-0 -38.79,4.183c-9.127,-9.888 -23.578,-8.747 -23.578,-8.747c0,0 -70.734,1.521 -109.523,116.749c-0,0 -38.79,122.074 44.113,138.046c79.101,15.212 112.186,-93.932 112.186,-93.932c0,0 2.662,-7.986 -3.422,-13.69c-1.141,-0.761 -2.662,-0.381 -3.043,0.76c-6.084,16.353 -40.311,102.679 -98.875,93.172c-0,-0 -47.157,-19.775 -13.691,-121.693c0,-0 9.888,-28.903 24.719,-57.044c14.831,-28.142 34.606,-54.762 52.86,-52.861c0,0 3.803,0.381 6.465,5.324c-16.352,9.508 -25.099,22.438 -25.099,22.438c-32.705,46.395 -3.803,54.001 -3.803,54.001c11.789,3.423 23.198,-4.564 30.424,-13.31c11.789,-14.071 15.972,-34.226 15.972,-34.226c2.282,-10.649 1.901,-18.635 -0,-24.719c9.507,-3.043 20.155,-3.423 33.085,-0.381Zm226.273,6.846c0,-0 6.846,18.254 -6.845,25.479c0,0 8.367,-17.493 6.845,-25.479Zm-277.232,16.352c0,0 -2.662,7.986 -6.465,17.113c-5.324,12.17 -13.31,25.86 -19.775,22.057c-10.268,-6.085 10.268,-35.747 10.268,-35.747c4.183,-6.085 10.268,-12.93 18.254,-18.635c-0,4.184 -0.761,9.127 -2.282,15.212Z" style="fill:#fff;fill-rule:nonzero;"/><path d="M4814.02,2138.56c39.93,0.761 74.537,-75.298 81.002,-90.509c1.521,-3.043 1.901,-6.465 1.14,-9.508c-0.76,-3.042 -1.901,-5.704 -3.422,-7.986c-0.761,-1.521 -3.423,-1.521 -4.183,0.381c-27.381,66.17 -64.27,95.833 -73.397,94.312c-7.605,-1.141 -7.225,-31.945 7.606,-85.185c42.973,-24.719 59.326,-71.875 59.326,-71.875c26.62,-74.157 -14.451,-74.537 -14.451,-74.537c-41.832,-1.141 -74.537,126.636 -74.537,126.636c-0,0 -34.607,117.51 20.916,118.271Zm61.607,-233.118c-0,-0 -9.508,6.465 -12.93,15.972c-0,-0 -1.521,-16.353 12.93,-15.972Zm0.38,9.887c0,0 4.564,20.916 -6.085,49.438c-6.465,17.493 -19.394,40.691 -41.451,58.565c8.746,-25.86 36.127,-100.777 47.536,-108.003Z" style="fill:#fff;fill-rule:nonzero;"/><path d="M4899.97,2136.28c22.818,3.423 40.311,-17.873 50.959,-36.888c0.381,41.452 29.663,39.17 29.663,39.17c39.931,-1.141 70.354,-80.241 74.537,-91.65c0.38,-1.521 0.761,-3.042 0.761,-4.183c-0,-4.184 -1.521,-8.367 -3.043,-11.409c-1.14,-1.902 -4.183,-1.521 -5.324,0.38c-25.479,66.931 -60.086,98.115 -65.79,93.932c-7.226,-5.324 6.845,-70.734 25.099,-117.89c0.761,-1.902 1.141,-3.803 1.521,-5.704c1.141,-15.592 -7.986,-25.48 -19.014,-28.522c-4.183,-1.141 -8.367,1.141 -9.888,4.943c-2.282,5.325 -4.183,10.649 -6.084,15.592c-3.423,-8.366 -9.888,-14.451 -20.156,-14.831c-38.029,-1.521 -66.551,55.142 -66.551,55.142c-26.24,52.48 -20.155,97.355 13.31,101.918Zm100.017,-129.299c-0,0 -1.141,-15.211 -3.423,-20.155c0,-0 11.409,6.465 3.423,20.155Zm-85.185,46.396c-0,-0 28.522,-61.607 42.973,-60.086c11.028,0.76 5.704,30.803 2.281,44.494c-0.38,2.282 -0.76,4.563 -1.521,6.465l0,0.38c-0.38,1.902 -0.76,3.423 -1.141,5.324c-3.042,7.986 -28.902,74.537 -54.001,75.298c-0,-0 -18.634,-6.085 11.409,-71.875Z" style="fill:#fff;fill-rule:nonzero;"/><path d="M5056.27,2139.32c1.901,-0 3.803,-1.902 3.803,-4.184c0.38,-5.704 1.521,-12.549 2.282,-19.775c26.24,-83.664 67.692,-121.313 73.776,-120.172c10.268,1.902 -15.211,45.635 -15.211,45.635c-20.916,34.987 -20.916,63.129 -20.916,63.129c-0.761,35.747 24.718,34.606 24.718,34.606c39.931,-1.141 79.481,-79.101 85.566,-91.65c0.761,-1.521 1.141,-3.042 1.141,-4.564c-0,-4.563 -1.902,-8.746 -3.803,-11.408c-1.141,-1.902 -3.423,-1.522 -4.564,0.38c-30.803,66.171 -71.494,98.115 -77.199,93.932c-7.606,-4.944 12.93,-49.058 31.945,-79.101c20.535,-32.705 15.972,-59.325 -3.043,-66.931c-24.718,-10.268 -52.86,28.142 -52.86,28.142c-7.986,9.887 -15.212,21.296 -21.296,30.803c3.422,-9.127 6.845,-18.634 11.028,-29.663c0.761,-1.14 1.141,-2.662 1.141,-4.183c1.901,-17.113 -9.127,-28.141 -21.296,-31.184c-3.043,-0.76 -6.085,0.761 -7.606,3.803c-12.93,31.945 -20.536,60.086 -25.099,79.861c-4.944,19.776 -8.367,49.819 -8.367,63.889c1.902,11.789 14.832,18.635 25.86,18.635Zm107.242,-128.919c0,-0 -1.901,-14.451 -4.944,-18.634c0,-0 10.648,4.943 4.944,18.634Zm-79.481,-1.902c0,0 -0.38,-11.028 -1.901,-17.113c-0,0 7.986,5.324 1.901,17.113Z" style="fill:#fff;fill-rule:nonzero;"/><path d="M5340.73,2065.16c6.845,-9.127 12.93,-18.634 19.014,-28.142c23.578,-36.888 34.607,-71.875 34.607,-71.875c4.563,-12.549 6.465,-23.197 7.606,-31.944c1.901,-13.691 -0,-23.578 -0.761,-27.001c-6.845,-28.141 -35.747,-24.719 -35.747,-24.719c-8.367,0.38 -15.973,2.662 -22.437,6.845c-16.353,9.888 -22.818,25.1 -22.818,25.1c-1.901,4.183 -2.662,7.605 -3.042,10.648c-0.381,2.662 -0,4.563 0.76,6.084c1.141,1.522 2.282,2.282 4.184,2.282c1.14,0.381 2.662,-0.38 4.183,-1.901c3.803,-4.564 12.549,-17.113 12.549,-17.113c0,-0 10.648,-16.353 28.522,-14.071c0,-0 19.775,2.662 14.071,30.423c-1.141,4.183 -2.282,9.127 -4.564,14.832c-7.225,20.155 -19.014,39.55 -27.761,52.48c-7.986,12.549 -25.86,39.55 -39.55,58.184c-0,0 -24.339,31.184 -42.212,48.678c-0.761,1.14 -3.043,3.802 -4.184,6.464c-2.662,6.085 -6.465,19.395 2.662,23.959c0.761,0.38 2.282,0.76 4.184,1.141c-0,-0 25.479,3.422 54.762,0.38c5.704,-0.761 10.267,-0.761 12.929,-1.521c10.649,-2.282 10.649,-7.606 10.649,-7.606c0.38,-2.662 -3.043,-4.563 -8.747,-6.085c-21.296,-5.324 -46.015,-2.281 -46.015,-2.281c22.817,-20.536 47.156,-53.241 47.156,-53.241Zm56.283,-144.891c-0,-0 -5.704,-19.395 -12.93,-27.381c-0,-0 14.451,3.423 12.93,27.381Z" style="fill:#fff;fill-rule:nonzero;"/><path d="M5497.41,1882.24c-19.775,-2.662 -33.466,6.845 -36.888,9.887c-0,0 -16.733,11.029 -34.227,55.523c-2.281,6.465 -4.563,13.31 -6.465,20.155c-4.183,13.31 -7.605,27.001 -10.648,40.311c-3.042,13.31 -5.704,26.621 -7.606,38.79c0,-0 -14.451,68.072 19.395,87.847c2.282,0.761 9.508,2.662 19.395,1.902c25.099,-2.282 41.452,-21.297 41.452,-21.297c22.817,-25.099 37.649,-70.734 37.649,-70.734c24.338,-69.593 17.493,-111.805 17.493,-111.805c-5.704,-48.297 -39.55,-50.579 -39.55,-50.579Zm7.225,69.593c-0.76,6.465 -1.521,12.93 -2.281,19.395c-1.141,6.845 -2.662,13.69 -4.184,20.536c-1.521,6.845 -3.042,14.07 -4.943,21.296c-3.043,13.69 -6.465,26.62 -10.268,38.409c-0,0 -7.606,20.536 -16.733,36.128l0.38,0c0,0 -23.958,42.212 -39.55,32.705c-14.451,-6.845 -9.507,-52.1 -9.507,-52.1c0.76,-10.268 2.281,-20.916 4.563,-32.325c1.902,-11.028 4.564,-22.817 7.226,-34.226c20.155,-88.227 47.156,-106.862 47.156,-106.862c4.183,-1.901 17.873,-6.084 25.86,25.48c-0,-0 2.281,9.887 2.281,17.874c0.381,4.183 0,8.746 0,13.69Zm3.803,-57.044c0,0 14.071,0.381 15.972,21.297c0,-0 -8.366,-15.973 -15.972,-21.297Z" style="fill:#fff;fill-rule:nonzero;"/><path d="M5600.47,2065.16c6.845,-9.127 12.93,-18.634 19.014,-28.142c23.578,-36.888 34.607,-71.875 34.607,-71.875c4.563,-12.549 6.465,-23.197 7.606,-31.944c1.901,-13.691 -0,-23.578 -0.761,-27.001c-6.845,-28.141 -35.747,-24.719 -35.747,-24.719c-8.367,0.38 -15.973,2.662 -22.438,6.845c-16.352,9.888 -22.817,25.1 -22.817,25.1c-1.902,4.183 -2.662,7.605 -3.042,10.648c-0.381,2.662 -0,4.563 0.76,6.084c1.141,1.522 2.282,2.282 4.183,2.282c1.141,0.381 2.662,-0.38 4.184,-1.901c3.803,-4.564 12.549,-17.113 12.549,-17.113c0,-0 10.648,-16.353 28.522,-14.071c0,-0 19.775,2.662 14.071,30.423c-1.141,4.183 -2.282,9.127 -4.564,14.832c-7.225,20.155 -19.014,39.55 -27.761,52.48c-7.986,12.549 -25.86,39.55 -39.55,58.184c-0,0 -24.339,31.184 -42.213,48.678c-0.76,1.14 -3.042,3.802 -4.183,6.464c-2.662,6.085 -6.465,19.395 2.662,23.959c0.761,0.38 2.282,0.76 4.184,1.141c-0,-0 25.479,3.422 54.761,0.38c5.705,-0.761 10.268,-0.761 12.93,-1.521c10.648,-2.282 10.648,-7.606 10.648,-7.606c0.381,-2.662 -3.042,-4.563 -8.746,-6.085c-21.297,-5.324 -46.015,-2.281 -46.015,-2.281c22.817,-20.536 47.156,-53.241 47.156,-53.241Zm56.283,-144.891c-0,-0 -5.705,-19.395 -12.93,-27.381c-0,-0 14.451,3.423 12.93,27.381Z" style="fill:#fff;fill-rule:nonzero;"/><path d="M5731.29,1883c-11.789,6.846 -32.325,25.48 -32.325,25.48c-5.704,4.563 -5.704,8.747 -0.761,13.69c3.423,3.043 8.367,-0.38 8.367,-0.38c3.042,-1.521 7.225,-4.944 11.409,-8.366c-15.212,49.057 -34.607,142.989 -40.692,169.99c-8.366,36.127 -9.887,51.719 6.846,51.719c11.408,0 19.775,-29.662 19.775,-29.662c15.972,-47.537 40.691,-172.272 41.452,-202.315c0.76,-30.804 -14.071,-20.156 -14.071,-20.156Zm6.465,34.987c-0,0 1.521,-19.395 -1.141,-28.522c-0,0 8.366,4.564 1.141,28.522Z" style="fill:#fff;fill-rule:nonzero;"/></g></svg>